<?xml version="1.0" standalone="no"?>
<!DOCTYPE svg PUBLIC "-//W3C//DTD SVG 1.1//EN" "http://www.w3.org/Graphics/SVG/1.1/DTD/svg11.dtd" >
<!--
2015-4-17: Created with FontForge (http://fontforge.org)
-->
<svg xmlns="http://www.w3.org/2000/svg" xmlns:xlink="http://www.w3.org/1999/xlink" version="1.1">
<metadata>
Created by FontForge 20150401 at Fri Apr 17 13:00:26 2015
 By Dimitri

</metadata>
<defs>
<font id="EntypoPlus" horiz-adv-x="1000" >
  <font-face 
    font-family="EntypoPlus"
    font-weight="400"
    font-stretch="normal"
    units-per-em="1000"
    panose-1="2 0 5 9 0 0 0 0 0 0"
    ascent="1050"
    descent="50"
    bbox="-0.25 49.9261 1000.25 1050.08"
    underline-thickness="50"
    underline-position="-100"
    unicode-range="U+F101-F29B"
  />
    <missing-glyph />
    <glyph glyph-name="uniF101" unicode="&#xf101;" 
d="M417.45 587.15c7.9502 -5.90039 15.5996 -12.4004 22.8496 -19.4502s13.6504 -13.5498 19.1006 -19.3506c-5.4502 -6.34961 -11.5508 -12.8994 -18.4004 -19.4492c-6.7998 -6.60059 -14.0996 -12.5 -21.8496 -17.7002c-7.7002 -5.25 -15.9004 -9.5498 -24.5508 -12.9502
c-8.69922 -3.4502 -17.2998 -5.2002 -25.9492 -5.2002c-16.8008 0 -30 5.25 -39.5508 15.7002c-9.5498 10.4502 -14.3496 23.9004 -14.3496 40.25c0 14.9502 4.65039 28.5 14.0498 40.5996c9.2998 12 21.9004 18.0508 37.8506 18.0508
c8.64941 0 17.25 -1.9502 25.9492 -5.85059c8.60059 -3.7998 16.9004 -8.7002 24.8506 -14.6494zM631.35 607.65c16.8008 0 30.1006 -5.7002 39.8506 -17.1006c9.7002 -11.2998 14.6494 -25 14.6494 -40.8994c0 -15.9502 -4.44922 -29.3008 -13.5996 -40.25
c-9.09961 -10.9502 -22 -16.4004 -38.8496 -16.4004c-9.5 0 -18.5508 1.59961 -26.9502 4.7998c-8.4502 3.2002 -16.5 7.40039 -24.1504 12.6006c-7.84961 5.25 -15.0498 11.0996 -21.8994 17.75c-6.85059 6.5 -13.2002 13.25 -19.1006 20.0996
c5.35059 5.90039 11.5498 12.4004 18.4004 19.4502c6.84961 7.0498 14 13.5498 21.5 19.4502c7.5498 5.94922 15.5 10.8496 23.8994 14.6494c8.35059 3.90039 17.1504 5.85059 26.25 5.85059zM500 1030c265.1 0 480 -214.9 480 -480s-214.9 -480 -480 -480
s-480 214.9 -480 480s214.9 480 480 480zM741.75 501.9c5.5498 15.3994 8.25 32 8.25 49.7998c0 17.75 -2.7002 34.0498 -8.2002 49.0996c-5.4502 15.0498 -13.1494 28 -23.1494 39.2002c-10 11.1504 -22.25 19.8496 -36.8008 26.2002
c-14.5996 6.4502 -30.9492 9.5498 -49.1992 9.5498c-14.4502 0 -28 -2.25 -40.5 -6.84961c-12.5 -4.5 -24.1006 -10.5508 -34.75 -18.0508c-10.75 -7.44922 -20.7002 -16.1992 -30.1006 -26.25c-9.25 -9.94922 -18.25 -20.1992 -26.9502 -30.6494
c-9.09961 10.9502 -18.25 21.25 -27.5996 31.0498s-19.3496 18.4502 -30.0996 25.9004c-10.7002 7.5 -22.25 13.5498 -34.75 18.0498c-12.5 4.59961 -26.25 6.84961 -41.25 6.84961c-18.25 0 -34.6006 -3.2998 -49.1006 -9.84961
c-14.5996 -6.65039 -26.8496 -15.4004 -36.8496 -26.6006c-9.9502 -11.1992 -17.6006 -24.3496 -22.8506 -39.5996s-7.84961 -31.7002 -7.84961 -49.4502c0 -17.7002 2.75 -34.2998 8.09961 -49.75c5.5 -15.4502 13.4502 -28.7002 23.9004 -39.8994
c10.4004 -11.1504 22.9502 -20 37.5 -26.6006c14.5996 -6.59961 31.1504 -9.84961 49.7998 -9.84961c15.0498 0 28.6006 2.14941 40.6006 6.4502c12.0498 4.34961 23.1992 10 33.3994 17.0996c10.2998 7 19.9004 15.2002 29.0498 24.5
c9.10059 9.34961 18.4502 19 27.9502 29c8.7002 -10 17.7998 -19.5996 27.2998 -29c9.60059 -9.2998 19.7002 -17.4502 30.4004 -24.5c10.6504 -7.09961 22.1504 -12.75 34.4502 -17.0996c12.25 -4.30078 25.4502 -6.4502 39.5498 -6.4502
c18.2002 0 34.6504 3.25 49.4502 9.84961c14.75 6.60059 27.1494 15.6504 37.1494 27.2998c10 11.5508 17.75 25.1006 23.1504 40.5508z" />
    <glyph glyph-name="uniF102" unicode="&#xf102;" 
d="M319.9 311.25c-24.1006 -8.65039 -51.2002 -12.9502 -81.2002 -12.9502c-37.3506 0 -70.4502 6.60059 -99.6504 19.7998c-29.0498 13.1504 -54.0498 30.9004 -75 53.2002c-20.8994 22.3506 -36.7998 48.9004 -47.75 79.8506
c-10.8994 30.8994 -16.2998 64.0996 -16.2998 99.5996c0 35.4004 5.2002 68.3496 15.6504 98.7998c10.3994 30.4502 25.6992 56.8506 45.6992 79.1504c20.0508 22.3496 44.5 40 73.7002 53.2002c29 13.1494 61.8506 19.7998 98.25 19.7998
c29.9502 0 57.5 -4.5498 82.5 -13.6504c25 -9.09961 48.1504 -21.1494 69.5498 -36.1494c21.4004 -15 41.4004 -32.3008 60.0508 -51.8506c18.5996 -19.5996 37 -40.25 55.1992 -62.0996c17.3008 20.8994 35.3008 41.4502 53.9004 61.3994
c18.6504 20.0508 38.6504 37.5508 60.0498 52.5508c21.3506 15 44.5498 27.0498 69.5498 36.1494c25 9.0498 52.1006 13.6504 81.1504 13.6504c36.4004 0 69.1504 -6.35059 98.2998 -19.1504c29.0498 -12.75 53.6504 -30.2002 73.6504 -52.5s35.5 -48.3496 46.3994 -78.4502
c10.9502 -30 16.4004 -62.6992 16.4004 -98.1992s-5.4502 -68.7002 -16.4004 -99.5508c-10.8994 -30.8994 -26.4492 -57.9492 -46.3994 -81.1494c-20 -23.25 -44.7998 -41.4004 -74.3506 -54.6006c-29.5 -13.1992 -62.5 -19.7998 -98.8496 -19.7998
c-28.25 0 -54.5996 4.2998 -79.0996 12.9502c-24.6006 8.7002 -47.5508 20.0498 -68.9502 34.1504c-21.3506 14.0996 -41.6006 30.3994 -60.7002 49.0996c-19.0996 18.6504 -37.2998 37.9502 -54.5996 57.9502c-19.1006 -20 -37.75 -39.2998 -55.9004 -57.9502
c-18.1504 -18.7002 -37.5 -35 -58 -49.0996c-20.4502 -14.1504 -42.7998 -25.4502 -66.8496 -34.1504zM158.2 467.5c19.0996 -20.9502 45.4502 -31.4004 79.2002 -31.4004c17.25 0 34.5498 3.40039 51.7998 10.25c17.2998 6.85059 33.5996 15.4502 49.1494 25.9502
c15.5 10.4004 29.9502 22.2002 43.6006 35.5c13.6494 13.0498 25.8994 26.0498 36.8496 38.7998c-10.9502 11.8008 -23.7002 24.75 -38.25 38.9004c-14.5 14.0498 -29.75 27 -45.5996 38.8496c-15.9502 11.8506 -32.5498 21.6504 -49.8506 29.3506
c-17.2998 7.7002 -34.5 11.5996 -51.75 11.5996c-31.9492 0 -57.1494 -12.1494 -75.75 -36.1494c-18.75 -24.1006 -28.0498 -51.2002 -28.0498 -81.2002c0 -32.7002 9.5 -59.5498 28.6504 -80.4502zM712.8 445.6c16.7998 -6.34961 34.7998 -9.5 53.8506 -9.5498
c33.6494 0 59.5498 10.8506 77.75 32.75c18.1494 21.7998 27.2998 48.5498 27.2998 80.4004c0 31.8994 -9.75 59.2002 -29.3506 81.8994c-19.5996 22.8008 -46.1494 34.1504 -79.7998 34.1504c-18.1494 0 -35.7002 -3.90039 -52.5498 -11.5996
c-16.7998 -7.7002 -32.75 -17.5 -47.75 -29.3506c-14.9502 -11.7998 -29.2998 -24.75 -42.9502 -38.7998c-13.6494 -14.1504 -25.8994 -27.0996 -36.7998 -38.9004c11.7998 -13.6992 24.5498 -27.0996 38.2002 -40.2998c13.5498 -13.2002 28.1494 -25 43.7002 -35.4502
c15.3994 -10.4492 31.5996 -18.8994 48.3994 -25.25z" />
    <glyph glyph-name="uniF103" unicode="&#xf103;" 
d="M970 600c30 0 30 -20 30 -50s0 -50 -30 -50h-170v-170c0 -30 -20 -30 -50 -30s-50 0 -50 30v170h-170c-30 0 -30 20 -30 50s0 50 30 50h170v170c0 30 20 30 50 30s50 0 50 -30v-170h170zM370 600c30 0 30 -20 30 -50s0 -50 -30 -50h-340c-30 0 -30 20 -30 50s0 50 30 50
h340zM370 350c30 0 30 -20 30 -50s0 -50 -30 -50h-340c-30 0 -30 20 -30 50s0 50 30 50h340zM370 850c30 0 30 -20 30 -50s0 -50 -30 -50h-340c-30 0 -30 20 -30 50s0 50 30 50h340z" />
    <glyph glyph-name="uniF104" unicode="&#xf104;" 
d="M799.45 93.5498c-0.150391 -31.8496 0.549805 -43.5498 0.549805 -43.5498h-800s0.700195 11.7002 0.549805 43.5498c-0.549805 106.45 32.6006 179.95 139.15 225.8c106.2 45.7002 116.8 73.7002 116.8 156.2c0 49.4502 -32.4502 33.3506 -46.6504 124.05
c-5.94922 37.6006 -34.6494 0.550781 -40.1494 86.4502c0 34.2002 15.7002 42.7002 15.7002 42.7002s-7.90039 50.6504 -11.1504 89.6504c-2.4502 31.8496 11.25 91.6992 62 129.5c59.6504 43.0996 85.7002 101.699 197.7 96.5
c-51.2002 -27.1006 -39.9502 -54.1504 -23.3506 -71.2002c95.1504 -26.75 118.25 -113.9 115.051 -154.75c-3.10059 -39 -11.0508 -89.6504 -11.0508 -89.6504s15.6504 -8.5 15.6504 -42.7002c-5.5 -85.8496 -34.0996 -48.8496 -40.0996 -86.4492
c-14.2002 -90.7002 -46.6006 -74.6006 -46.6006 -124.051c0 -82.5 33.9004 -121 140.05 -166.699c106.551 -45.9004 216.4 -108.9 215.851 -215.351zM850 550h150v-100h-150v-150h-100v150h-150v100h150v150h100v-150z" />
    <glyph glyph-name="uniF105" unicode="&#xf105;" 
d="M989.95 791.75c6.7002 -4.59961 10.0498 -10.6504 10.0498 -16.75s-3.34961 -12.1504 -10.0996 -16.7002l-118.75 -91.5996c-6.7002 -4.5498 -16.2002 -8.75 -26.0508 -11.7998c-9.84961 -3.05078 -20.0996 -4.90039 -28.2998 -4.90039h-301.75l-40.0498 250h341.8
c8.2002 0 18.4502 -1.84961 28.3506 -4.90039c9.84961 -3.0498 19.2998 -7.19922 26.0498 -11.8496zM425 1000c13.7998 0 25 -11.2002 25 -25v-850c0 -13.7998 -11.2002 -25 -25 -25h-50c-13.7998 0 -25 11.2002 -25 25v425h-166.8
c-8.2998 0 -18.5 1.84961 -28.3506 4.90039c-9.89941 3 -19.3496 7.19922 -26.0498 11.75l-118.75 91.5996c-6.75 4.65039 -10.0498 10.7002 -10.0498 16.75c0 6.09961 3.2998 12.2002 10.0498 16.75l118.75 91.5c6.7002 4.65039 16.1504 8.7998 26.0498 11.7998
c9.85059 3.10059 20.0508 4.9502 28.3506 4.9502h166.8v175c0 13.7998 11.2002 25 25 25h50z" />
    <glyph glyph-name="uniF106" unicode="&#xf106;" 
d="M950 590.05c27.5498 0 50 -18 50 -40.0498c0 -22.0996 -22.4004 -39.9502 -50 -39.9502h-49c-27.6504 0 -50 17.9004 -50 39.9502c0 22.0996 22.3496 40.0498 50 40.0498h49zM500 825c152.45 0 275 -122.45 275 -275s-122.5 -275 -275 -275
c-152.55 0 -275 122.45 -275 275s122.45 275 275 275zM500 350v400c-110.55 0 -200 -89.4502 -200 -200c0 -110.45 89.4502 -200 200 -200zM150 550c0 -22.0498 -22.4502 -39.9502 -50 -39.9502h-50c-27.6504 0 -50 17.9004 -50 39.9502
c0 22.0996 22.3496 40.0498 50 40.0498h50c27.5498 0 50 -18 50 -40.0498zM500 900c-22.0996 0 -40.0498 22.3496 -40.0498 50v50c0 27.6504 17.9502 50 40.0498 50c22.0498 0 39.9502 -22.3496 39.9502 -50v-50c0 -27.6504 -17.9004 -50 -39.9502 -50zM500 200
c22.0498 0 39.9502 -22.3496 39.9502 -50v-50c0 -27.6504 -17.9004 -50 -39.9502 -50c-22.0996 0 -40.0498 22.3496 -40.0498 50v50c0 27.6504 17.9502 50 40.0498 50zM868.25 861.7c-5.40039 -5.35059 -29.5996 -29.5498 -34.9502 -34.9502
c-19.5 -19.5498 -48.0498 -22.75 -63.6494 -7.15039c-15.6006 15.6006 -12.4502 44.1006 7.09961 63.6504c5.34961 5.34961 29.5996 29.5996 35 34.9502c19.4502 19.5498 48 22.75 63.5996 7.14941c15.6006 -15.5996 12.4502 -44.0996 -7.09961 -63.6494zM166.7 273.35
c19.4502 19.4502 48 22.75 63.5996 7.10059c15.6006 -15.6504 12.4502 -44.1504 -7.09961 -63.7002c-5.35059 -5.34961 -29.6006 -29.5996 -35 -34.9502c-19.4502 -19.5498 -48 -22.6494 -63.6006 -7.0498c-15.5996 15.5996 -12.4492 44 7.10059 63.5498
c5.34961 5.35059 29.5996 29.6006 35 35.0498zM188.25 918.25c5.40039 -5.34961 29.5996 -29.5996 34.9502 -35c19.5 -19.5 22.6494 -48.0498 7.0498 -63.6504c-15.5996 -15.5996 -44.0498 -12.3994 -63.5996 7.15039c-5.35059 5.34961 -29.6006 29.5996 -35 34.9502
c-19.4502 19.5498 -22.6504 48.0996 -7.05078 63.7002c15.6006 15.5996 44.1504 12.3994 63.6504 -7.15039zM776.7 216.7c-19.5498 19.5498 -22.7998 48.0498 -7.15039 63.6494c15.6504 15.6006 44.1504 12.4004 63.7002 -7.14941
c5.34961 -5.35059 29.5996 -29.6006 34.9502 -34.9502c19.5498 -19.5 22.7002 -48.0498 7.09961 -63.6504c-15.5996 -15.5 -44.0498 -12.3994 -63.5996 7.15039c-5.35059 5.34961 -29.6006 29.5996 -35 34.9502z" />
    <glyph glyph-name="uniF107" unicode="&#xf107;" 
d="M132.15 732.15c-21.1504 -18.2002 -52.6504 -15.3506 -70.4502 6.14941c-17.75 21.6504 -15.0498 53.7998 6.0498 71.9502c93.0996 80 209 179.5 456.4 39.8496c187.25 -105.899 256.3 -46.5996 343.6 28.5c21.1504 18.1504 52.6504 15.3506 70.5 -6.25
c17.75 -21.5498 15.0498 -53.7998 -6.09961 -71.9492c-59.25 -50.8506 -127.801 -109.65 -233.551 -109.65c-60.3496 -0.0996094 -132.899 19.0996 -222.85 69.9004c-187.25 105.8 -256.25 46.5 -343.6 -28.5zM867.75 623.25c21.1504 18.1504 52.7002 15.4502 70.5 -6.2002
c17.75 -21.5 15.0498 -53.75 -6.09961 -71.8994c-59.25 -50.9502 -127.801 -109.75 -233.551 -109.75c-60.3496 0 -132.899 19.0996 -222.85 70c-187.25 105.75 -256.25 46.4492 -343.6 -28.6006c-21.1504 -18.1494 -52.7002 -15.3496 -70.4502 6.25
c-17.7998 21.5498 -15.0498 53.7998 6.0498 71.9502c93.0996 79.9502 209 179.5 456.4 39.75c187.25 -105.9 256.3 -46.5 343.6 28.5zM867.75 367.95c21.1504 18.0996 52.7002 15.3496 70.5 -6.25c17.75 -21.5498 15.0498 -53.7998 -6.09961 -71.9502
c-59.25 -50.8496 -127.801 -109.75 -233.551 -109.75c-60.3496 0 -132.899 19.2002 -222.85 70c-187.25 105.75 -256.25 46.5 -343.6 -28.5c-21.1504 -18.1504 -52.7002 -15.4502 -70.4502 6.15039c-17.7998 21.5498 -15.0498 53.7998 6.0498 71.9492
c93.0996 80 209 179.5 456.4 39.75c187.25 -105.8 256.3 -46.5 343.6 28.6006z" />
    <glyph glyph-name="uniF108" unicode="&#xf108;" 
d="M937.6 248.1c-4.84961 -13.2998 -41.0996 -50.0996 -301.449 43.9004l-255.25 92.1504c-88.8506 32.0498 -213.9 82.4492 -262.9 110.85c-34.2998 19.8496 -41.7998 64.0996 -41.7998 64.0996s-8.15039 147.801 -13.1504 184.2c-5 36.4004 4.75 42.6504 39.7998 24.6006
c21.8008 -11.25 93.25 -128.101 123.2 -178.351c75.6006 -19.0498 143.101 -38.0498 174.65 -47.4502c-12.8506 85.8506 -37 246.4 -45.6504 296.65c-8.2998 48.1504 27.5 26.75 27.5 26.75c16.5498 -9.5 49.1504 -33.0498 60.2998 -50.0996
c76.1006 -116.301 183.601 -330 191.801 -346.4c44.7998 -14 113.85 -36.6504 155.1 -51.5c107.8 -38.9502 154.35 -151.7 147.85 -169.4z" />
    <glyph glyph-name="uniF109" unicode="&#xf109;" 
d="M993.5 727.35c5.9502 -12.8496 6.34961 -64.5 -244.2 -182.1l-245.649 -115.3c-85.5 -40.1504 -209.551 -92.9502 -264.25 -107.55c-38.3008 -10.2002 -74.8506 15.7998 -74.8506 15.7998s-110.3 98.75 -139.6 120.95c-29.25 22.1992 -26.75 33.5 10.75 45.5
c23.3496 7.44922 156.5 -24.6504 213.25 -39c66.9502 40 128.1 74.2998 157.05 89.8994c-69.7998 51.6504 -200.4 148.101 -242.05 177.5c-39.9502 28.25 0.5 38.4004 0.5 38.4004c18.3994 4.9502 58.0996 11.3994 78.0996 7.2002
c136.05 -28.4502 363.15 -103.551 380.55 -109.301c41.6006 21.8008 106.4 54.6006 146.101 73.25c103.75 48.7002 216.35 1.85059 224.3 -15.25z" />
    <glyph glyph-name="uniF10A" unicode="&#xf10a;" 
d="M624.8 179.3c-19.7002 54.7998 -90.25 238.75 -119.5 314.851c-55.1494 -36.8506 -116.7 -71.75 -175.6 -96.4004c-18.2998 -64 -54.7002 -185.45 -72.2998 -201.65c-30.2002 -27.8496 -41.6006 -24.25 -46.25 13.9502c-4.65039 38.2002 -24.25 161.8 -24.25 161.8
s-108.101 60.9502 -142 78.4004c-33.9004 17.4502 -33.3506 29.5498 2.84961 48.7002c21.0996 11.1494 146.35 4.25 212.1 -0.25c43.0508 47.5498 96.5508 94.0996 149.65 133.95c-60.75 53.7998 -207.5 183.75 -251.7 221.199
c-38.7998 32.9004 3.9502 39.8506 3.9502 39.8506c19.5 3.5 61.0996 6.59961 81.4004 0.450195c126.199 -38.1504 322.1 -103.4 368.149 -118.801c17.6504 12.4502 36.8506 26 58.1006 41.0508c235.1 166.5 294.35 129.649 305.55 113.5
c11.2002 -16.1504 25.1494 -85.0508 -209.95 -251.601c-21.25 -15.0498 -40.4004 -28.6494 -58 -41.1494c-1.4502 -49 -7.84961 -257.551 -15.5498 -390.551c-1.25 -21.3994 -18.3506 -59.8994 -28.25 -77.1992c-0.0498047 0 -21.1504 -38.25 -38.4004 9.89941z" />
    <glyph glyph-name="uniF10B" unicode="&#xf10b;" 
d="M650 500l-150 -150l-150 150h100v400h100v-400h100zM870 300c27.5996 0 30 -22.3496 30 -50s-2.40039 -50 -30 -50h-740c-27.5996 0 -30 22.3496 -30 50s2.40039 50 30 50h740z" />
    <glyph glyph-name="uniF10C" unicode="&#xf10c;" 
d="M400 550l-150 -150v100h-200v100h200v100zM750 400l-150 150l150 150v-100h200v-100h-200v-100zM500 150c-27.5996 0 -50 2.4502 -50 30v740c0 27.6504 22.4004 30 50 30c27.6504 0 50 -2.34961 50 -30v-740c0 -27.5498 -22.3496 -30 -50 -30z" />
    <glyph glyph-name="uniF10D" unicode="&#xf10d;" 
d="M300 550l150 150v-100h400v-100h-400v-100zM200 950c27.5996 0 50 -2.34961 50 -30v-740c0 -27.5498 -22.4004 -30 -50 -30c-27.6504 0 -50 2.4502 -50 30v740c0 27.6504 22.3496 30 50 30z" />
    <glyph glyph-name="uniF10E" unicode="&#xf10e;" 
d="M550 700l150 -150l-150 -150v100h-400v100h400v100zM750 920c0 27.6504 22.4004 30 50 30c27.6504 0 50 -2.34961 50 -30v-740c0 -27.5498 -22.3496 -30 -50 -30c-27.5996 0 -50 2.4502 -50 30v740z" />
    <glyph glyph-name="uniF10F" unicode="&#xf10f;" 
d="M500 750l150 -150h-100v-400h-100v400h-100zM900 850c0 -27.6504 -2.40039 -50 -30 -50h-740c-27.5996 0 -30 22.3496 -30 50s2.40039 50 30 50h740c27.5996 0 30 -22.3496 30 -50z" />
    <glyph glyph-name="uniF110" unicode="&#xf110;" 
d="M500 450l150 -150h-100v-200h-100v200h-100zM650 800l-150 -150l-150 150h100v200h100v-200h100zM900 550c0 -27.5498 -2.40039 -50 -30 -50h-740c-27.5996 0 -30 22.4502 -30 50c0 27.6504 2.40039 50 30 50h740c27.5996 0 30 -22.3496 30 -50z" />
    <glyph glyph-name="uniF111" unicode="&#xf111;" 
d="M878.201 356.885c-20.666 -45.7764 -30.5781 -66.2568 -57.1895 -106.732c-37.125 -56.5186 -89.4746 -126.901 -154.343 -127.502c-57.6201 -0.546875 -72.415 37.4971 -150.647 37.0664c-78.2012 -0.430664 -94.5459 -37.7568 -152.194 -37.21
c-64.8408 0.600586 -114.456 64.166 -151.607 120.685c-103.854 158.038 -114.71 343.546 -50.6592 442.145c45.5312 70.0654 117.33 111.087 184.851 111.087c68.75 0 111.976 -37.6982 168.808 -37.6982c55.1426 0 88.7451 37.7568 168.207 37.7568
c60.0713 0 123.722 -32.7148 169.083 -89.2305c-148.614 -81.4395 -124.466 -293.649 25.6924 -350.366zM623.126 859.616c-30.9082 -39.6758 -84.1885 -70.4404 -135.693 -68.8633c-9.39648 51.2178 14.7529 103.867 43.9854 139.358
c32.2109 39.1299 87.3838 69.123 134.564 72.3877c7.96191 -53.4785 -13.9805 -105.816 -42.8564 -142.883z" />
    <glyph glyph-name="uniF112" unicode="&#xf112;" 
d="M699.05 950c0 0 49.7998 0 49.7998 -50h-497.75c0 50 49.8008 50 49.8008 50h398.149zM848.4 800v-50h-696.801v50c0 50 49.75 50 49.75 50h597.301s49.75 0 49.75 -50zM947.9 750c29.5 -29.5996 50.5996 -37.5 38.8496 -100
c-11.8496 -62.2998 -68.9502 -403.8 -77.4502 -450c-9.34961 -50.7002 -60.8496 -50 -60.8496 -50h-696.8s-51.5508 -0.700195 -60.8506 50c-8.5 46.2002 -65.6494 387.7 -77.4502 450c-11.8496 62.5 9.25 70.4004 38.7002 100l29.4502 29.5996v-79.5996h837v79.5996z
M700 450.15v99.8496h-50v-100h-300v100h-50v-99.8496c0 -27.7002 22.4502 -50.1504 50.1504 -50.1504h299.699c27.7002 0 50.1504 22.4502 50.1504 50.1504z" />
    <glyph glyph-name="uniF113" unicode="&#xf113;" 
d="M1000 950v-800h-984c-15.9004 0 -20.7998 10.4502 -10.7998 23.25l223.45 287.4c9.94922 12.7998 27.6494 14.1494 39.4492 3.09961l70.9502 -66.7002c11.75 -11.0498 28.6006 -8.89941 37.3506 4.7998l152.35 237c8.75 13.6504 25.4502 15.6006 37.0498 4.5
l108.55 -104.8c11.6006 -11.25 27.9502 -9 36.2002 5l256.65 389.25c8.2998 14.1006 20.2998 17.2002 32.7998 17.2002z" />
    <glyph glyph-name="uniF114" unicode="&#xf114;" 
d="M125 550h175v350h400v-350h175l-375 -375z" />
    <glyph glyph-name="uniF115" unicode="&#xf115;" 
d="M500 925v-175h350v-400h-350v-175l-375 375z" />
    <glyph glyph-name="uniF116" unicode="&#xf116;" 
d="M875 550l-375 -375v175h-350v400h350v175z" />
    <glyph glyph-name="uniF117" unicode="&#xf117;" 
d="M500 925l375 -375h-175v-350h-400v350h-175z" />
    <glyph glyph-name="uniF118" unicode="&#xf118;" 
d="M500 175l-325 325h175v400h300v-400h175z" />
    <glyph glyph-name="uniF119" unicode="&#xf119;" 
d="M125 550l325 325v-175h400v-300h-400v-175z" />
    <glyph glyph-name="uniF11A" unicode="&#xf11a;" 
d="M500 87.5l-275 262.5h175v650h200v-650h175z" />
    <glyph glyph-name="uniF11B" unicode="&#xf11b;" 
d="M37.5 550l262.5 275v-175h650v-200h-650v-175z" />
    <glyph glyph-name="uniF11C" unicode="&#xf11c;" 
d="M700 275v175h-650v200h650v175l262.5 -275z" />
    <glyph glyph-name="uniF11D" unicode="&#xf11d;" 
d="M500 1012.5l275 -262.5h-175v-650h-200v650h-175z" />
    <glyph glyph-name="uniF11E" unicode="&#xf11e;" 
d="M550 225v175h-400v300h400v175l325 -325z" />
    <glyph glyph-name="uniF11F" unicode="&#xf11f;" 
d="M500 925l325 -325h-175v-400h-300v400h-175z" />
    <glyph glyph-name="uniF120" unicode="&#xf120;" 
d="M500 1030c265.05 0 480 -214.9 480 -480c0 -265.15 -214.95 -480.05 -480 -480.05c-265.15 0 -480.05 214.899 -480.05 480.05c0 265.1 214.899 480 480.05 480zM499.95 170c209.85 0 380.05 170.15 380.05 380s-170.15 380 -380.05 380c-209.9 0 -380 -170.1 -380 -380
s170.149 -380 380 -380zM600 750v-200h125l-225 -225l-225 225h125v200h200z" />
    <glyph glyph-name="uniF121" unicode="&#xf121;" 
d="M500 1030c265.05 0 480 -214.9 480 -480c0 -265.15 -214.95 -480.05 -480 -480.05c-265.15 0 -480.05 214.899 -480.05 480.05c0 265.1 214.899 480 480.05 480zM499.95 170c209.85 0 380.05 170.15 380.05 380s-170.15 380 -380.05 380c-209.9 0 -380 -170.1 -380 -380
s170.149 -380 380 -380zM500 775v-125h200v-200h-200v-125l-225 225z" />
    <glyph glyph-name="uniF122" unicode="&#xf122;" 
d="M500 1030c265.05 0 480 -214.9 480 -480c0 -265.15 -214.95 -480.05 -480 -480.05c-265.15 0 -480.05 214.899 -480.05 480.05c0 265.1 214.899 480 480.05 480zM499.95 170c209.85 0 380.05 170.15 380.05 380s-170.15 380 -380.05 380c-209.9 0 -380 -170.1 -380 -380
s170.149 -380 380 -380zM500 650v125l225 -225l-225 -225v125h-200v200h200z" />
    <glyph glyph-name="uniF123" unicode="&#xf123;" 
d="M500 1030c265.05 0 480 -214.9 480 -480c0 -265.15 -214.95 -480.05 -480 -480.05c-265.15 0 -480.05 214.899 -480.05 480.05c0 265.1 214.899 480 480.05 480zM499.95 170c209.85 0 380.05 170.15 380.05 380s-170.15 380 -380.05 380c-209.9 0 -380 -170.1 -380 -380
s170.149 -380 380 -380zM500 775l225 -225h-125v-200h-200v200h-125z" />
    <glyph glyph-name="uniF124" unicode="&#xf124;" 
d="M280.1 60c-64.6494 0 -125.199 27.75 -168.899 72c-84.75 85.7998 -108.351 235.55 10.4502 355.8c69.5498 70.4004 348.3 352.65 487.399 493.5c49.4004 50 112.25 69.3506 172.4 53c59.1494 -16 107.55 -65.0498 123.399 -124.899
c16.1006 -61 -2.94922 -124.65 -52.2998 -174.65l-466.149 -472c-26.6006 -26.9502 -56.7002 -42.9004 -86.9004 -46.0996c-29.9502 -3.2002 -58.5 6.5 -78.5 26.75c-36.2002 36.7998 -41.4004 105.85 18.9004 166.85l327.399 331.5
c13.4502 13.5996 35.25 13.5996 48.7002 0s13.4502 -35.7002 0 -49.2998l-327.45 -331.55c-28.2998 -28.6006 -30.8994 -55.9502 -18.8496 -68.2002c5.2998 -5.2998 13.2998 -7.75 22.5498 -6.7002c14.1504 1.4502 30.2998 10.7998 45.4502 26.0498l466.149 471.95
c32 32.4004 44.25 70.5 34.5 107.25c-9.59961 36.25 -38.8994 65.9004 -74.6494 75.6504c-36.2998 9.84961 -74 -2.60059 -106 -35c-139.101 -140.9 -417.8 -423.101 -487.4 -493.5c-90.7998 -91.9502 -69.0498 -197.801 -10.4502 -257.15
c58.6504 -59.3496 163.101 -81.4502 253.95 10.5996l487.4 493.5c13.4502 13.6006 35.25 13.6006 48.7002 0c13.4492 -13.5996 13.4492 -35.6992 0 -49.3496l-487.4 -493.5c-57.4502 -58.0996 -121.8 -82.5 -182.4 -82.5z" />
    <glyph glyph-name="uniF125" unicode="&#xf125;" 
d="M828.7 233.1c8.7998 -12.1992 7.9502 -33.1992 -0.400391 -54.1494c-6.5 -16.1006 -31.5 -88.0498 -37.5996 -103.2c-7.7998 -19.4502 -33.25 -33.5 -54.1006 -4.59961c-12.0498 16.6992 -129.149 176.3 -236.6 326.1c-107.5 -149.85 -224.55 -309.4 -236.6 -326.1
c-20.9004 -28.9004 -46.3008 -14.8506 -54.1006 4.59961c-6.09961 15.0996 -31.0996 87.0996 -37.5996 103.2c-8.4502 20.8994 -9.25 41.8994 -0.450195 54.0996c37.8496 52.5498 142.55 191.25 228.55 305.3c-34.8496 49.9502 -62.5996 90.8008 -75.2998 112.101
c-77.25 129.7 -43.75 213 -1.0498 283.5c42.6494 70.5996 49.3994 111.35 176.55 111.35c127.1 0 133.85 -40.75 176.55 -111.3c42.6006 -70.5 76.1504 -153.8 -1.09961 -283.5c-12.7002 -21.3496 -40.4502 -62.1504 -75.25 -112.1
c85.9502 -114.101 190.649 -252.75 228.5 -305.301zM481.7 696.85c4.34961 -6.0498 10.8496 -14.8496 18.2998 -24.8496c7.34961 10 13.8496 18.7998 18.25 24.8496c53.3496 74.2002 91.6504 160.551 91.6504 160.551s-21 37.8994 -109.9 37.8994
s-109.9 -37.8994 -109.9 -37.8994s38.2002 -86.3506 91.6006 -160.551z" />
    <glyph glyph-name="uniF126" unicode="&#xf126;" 
d="M550 960.05c225.75 0 408.7 -183.6 408.7 -410.05s-182.95 -409.95 -408.7 -409.95c-94.9004 0 -182.25 32.5 -251.65 86.9004l70.3008 75.2002c50.7998 -37.4004 113.5 -59.6504 181.35 -59.6504c169.3 0 306.55 137.7 306.55 307.5s-137.25 307.5 -306.55 307.5
c-165.85 0 -300.9 -132.1 -306.25 -297.25v-10.25h133.6l-174.699 -194.7l-179.7 194.7h118.6v10.25c5.40039 221.7 186.2 399.8 408.45 399.8zM500 800h100v-300l114 -113.95c-11.8496 -11.9502 -25.2002 -22.25 -39.3496 -31.3994l-160 160
c-4.60059 4.59961 -8.25 10.1494 -10.8008 16.25c-2.5 6.09961 -3.84961 12.5996 -3.84961 19.0996v250z" />
    <glyph glyph-name="uniF127" unicode="&#xf127;" 
d="M950 700v-300c0 -55.1504 -44.7998 -100 -100 -100h-700v150h650v200h-550v-100l-200 175l200 175v-100h600c55.2002 0 100 -44.7998 100 -100z" />
    <glyph glyph-name="uniF128" unicode="&#xf128;" 
d="M870.582 703.148c88.5596 -70.0439 34.4375 -299.344 -114.258 -237.568c-69.9521 29.0537 -64.9307 212.849 -9.10352 246.703c12.1787 7.39844 29.4082 7.80176 50.2246 9.12988c26.9365 1.75586 55.2012 -4.11133 73.1367 -18.2646zM646.664 511.248
c61.8584 -71.7979 167.858 -132.183 191.9 -196.478c49.0947 -131.256 -42.2607 -212.062 -155.388 -214.726c-48.6494 -1.16992 -96.8486 20.9678 -159.883 27.4199c-105.297 10.7891 -250.674 -52.3193 -328.983 4.55762
c-39.8799 29.0137 -62.4102 107.202 -45.6758 173.633c22.9541 91.0146 124.217 133.695 178.201 191.883c45.4844 48.9717 56.3418 118.933 141.678 132.505c96.0908 15.2812 129.962 -62.8682 178.15 -118.795zM632.963 707.706
c-60.5254 1.71289 -95.5352 65.8887 -91.3643 132.482c3.61035 57.4404 41.1211 116.031 86.8096 127.968c76.8867 20.1016 128.239 -58.5908 123.358 -137.08c-3.73926 -60.1221 -62.1387 -124.964 -118.804 -123.37zM413.634 725.99
c-141.246 -19.0918 -158.504 239.001 -50.2334 269.565c78.6006 22.2188 114.933 -42.7031 123.378 -109.64c10.2344 -81.333 -14.2852 -151.98 -73.1445 -159.926zM208.072 520.38c-145.48 -21.7119 -161.588 237.528 -41.1211 264.988
c140.106 31.9375 170.236 -245.713 41.1211 -264.988z" />
    <glyph glyph-name="uniF129" unicode="&#xf129;" 
d="M850 1000c27.6504 0 50 -22.3496 50 -50v-849.6h-200v849.6c0 27.6504 22.4004 50 50 50h100zM550 700c27.6504 0 50 -22.3496 50 -50v-549.6h-200v549.6c0 27.6504 22.4004 50 50 50h100zM250 400c27.6504 0 50 -22.3496 50 -50v-249.6h-200v249.6
c0 27.6504 22.4004 50 50 50h100z" />
    <glyph glyph-name="uniF12A" unicode="&#xf12a;" 
d="M500 950c233.65 0 465 -324.05 465 -621.1c0 -68.8506 -226.7 -178.9 -465 -178.9s-465 110.05 -465 178.9c0 297.05 231.35 621.1 465 621.1zM500.3 269.25c282.15 0 336.351 116.5 336.351 130.05c0 78.5498 -179.45 337.45 -230.051 337.45
c-50.5996 0 -116.899 -197.7 -178.949 -197.7c-38.6006 0 -79.75 90.5498 -115.7 90.5498c-38.7998 0 -145.3 -159.899 -145.3 -224.25c0 -32.6992 73.75 -136.1 333.649 -136.1z" />
    <glyph glyph-name="uniF12B" unicode="&#xf12b;" 
d="M770.4 550c0 -138.3 63.8496 -216 113.85 -216h65.75c-33.4004 -52.9502 -61 -84 -182.9 -84h-500.399c-186.7 0 -266.7 172.05 -266.7 300s80 300 266.7 300h500.399c121.851 0 149.5 -31.0498 182.9 -84h-65.75c-50 0 -113.85 -77.7002 -113.85 -216zM634.4 460.25
c8.5498 13.4004 -8.7002 27.5498 -8.7002 27.5498s-136.55 132.7 -179 162.5c-42.4004 29.9004 -50.2002 3.10059 -60.4502 -20.3994c-10.1504 -23.5508 -23.4004 -56.9502 -23.4004 -56.9502l-147.8 66.7998s-25.6494 11.7998 -33.7998 -0.799805
c-8.59961 -13.3506 8.65039 -27.5498 8.65039 -27.5498s136.6 -132.601 179.05 -162.5c42.3994 -29.8008 50.2002 -3.15039 60.4502 20.3994c10.1494 23.5498 23.3496 57.0498 23.3496 57.0498l147.85 -66.8994s25.6006 -11.7002 33.8008 0.799805zM943.7 653.6
c28 0 56.2998 -37.6992 56.2998 -98.9492c0 -61.3008 -28.2998 -99 -56.2998 -99h-37.4502c-27.9004 0 -55.25 37.6494 -55.25 99c0 61.25 27.2998 98.9492 55.25 98.9492h37.4502z" />
    <glyph glyph-name="uniF12C" unicode="&#xf12c;" 
d="M850 1000l-0.0996094 -650c0 -62.1504 -65.0508 -150 -187.4 -150c-62.1504 0 -112.5 32.6504 -112.5 93.75c0 79.4502 72.25 127.5 150 127.5c21.5996 0 37.7002 -2.9502 50 -6.15039v366.7l-350 -63.6494v-468.15h-0.0996094c0 -62.1504 -65.0508 -150 -187.4 -150
c-62.1504 0 -112.5 32.6504 -112.5 93.75c0 79.4502 72.25 127.5 150 127.5c21.5996 0 37.7002 -2.9502 50 -6.15039v584.9z" />
    <glyph glyph-name="uniF12D" unicode="&#xf12d;" 
d="M403.6 584.95c124.7 0 116.101 -160.45 116.15 -160.5c0 -197.25 -197.05 -190.8 -197.05 -190.8h-322.7v646.3h322.7c98.0996 0 175.5 -56.2998 175.5 -172.05c0 -115.601 -94.6006 -122.95 -94.6006 -122.95zM142.2 765.15v-144.25h169.3
c29.2998 0 55.0996 9.75 55.0996 77.0498c0 67.2002 -43.8994 67.2002 -43.8994 67.2002h-180.5zM313.55 348.55c25.7002 0.549805 74.5498 8.40039 74.5498 84c0 89.6504 -65.3994 88.75 -65.3994 88.75h-180.5v-172.75h171.35zM782.45 715.6
c251.05 0 215.649 -280.55 215.6 -280.6h-321.149c0 -120.1 109.199 -112.5 109.199 -112.5c103 0 99.4004 69.5498 99.4004 69.5498h109.1c0 -184.55 -212.149 -171.85 -212.149 -171.85c-254.65 0 -238.351 247.05 -238.351 247.05s-0.199219 248.35 238.351 248.35z
M879.5 521.3c0 0 1.2002 99.6006 -94.5996 99.6006c-95.8008 0 -109.101 -99.6006 -109.101 -99.6006h203.7zM904.85 842v-79.7002h-255.85v79.7002h255.85z" />
    <glyph glyph-name="uniF12E" unicode="&#xf12e;" 
d="M732.5 624.4c48.0498 -103.301 125.35 -44.1006 163.6 -151.351c27.9502 -78.2002 -109 -238.25 -326.35 -318.899c-217.3 -80.6006 -423.3 -47.8506 -451.25 30.3496c-38.25 107.2 58.4502 112.6 30.0996 223.25c-67.2998 262.65 -80.6494 372.85 64.4502 492
c51.7002 42.4502 8.35059 69.9004 58.8506 88.6504c50.5996 18.75 34.6992 -30.7002 101.05 -29.3506c186.25 3.90039 245.55 -89.2998 359.55 -334.649zM546.2 220.25c194.149 72.0498 290.55 206.4 282.899 227.85c-12.9492 36.25 -136.8 66.8008 -358.699 -15.5498
c-221.9 -82.3496 -296.15 -190.649 -284.551 -223.149c6.75 -18.8506 166.25 -61.1504 360.351 10.8496zM483.8 394.95c13.2002 4.9502 26.0498 9.39941 38.6006 13.5c0.25 -0.650391 0.549805 -1.15039 0.799805 -1.7998c18.5498 -51.9004 -28.4004 -116.95 -104.75 -145.2
c-59.9502 -22.25 -120.15 -15.1504 -152.3 14.0498c45.6992 38.75 116.199 81.7998 217.649 119.45z" />
    <glyph glyph-name="uniF12F" unicode="&#xf12f;" 
d="M126.95 50l95.0498 235.1l148.3 -50.1992l-70.2998 -184.9h-173.05zM629.7 234.9l148.3 50.1992l95.0498 -235.1h-173.05zM900 950c27.6504 0 50 -22.4004 50 -50v-550c0 -27.5996 -22.3496 -50 -50 -50h-800c-27.6504 0 -50 22.4004 -50 50v550
c0 27.6504 22.3496 50 50 50h325l25 100h100l25 -100h325z" />
    <glyph glyph-name="uniF130" unicode="&#xf130;" 
d="M500 1030c265.05 0 480 -214.9 480 -480c0 -265.15 -214.95 -480.05 -480 -480.05c-265.15 0 -480.05 214.899 -480.05 480.05c0 265.1 214.899 480 480.05 480zM119.95 550c0 -91.4502 32.3496 -175.25 86.1494 -240.85l534.7 534.699
c-65.5498 53.8008 -149.399 86.1504 -240.85 86.1504c-209.9 0 -380 -170.15 -380 -380zM499.95 170.05c209.85 0 380.05 170.101 380.05 379.95c0 91.4502 -32.3496 175.2 -86.0996 240.8l-534.7 -534.649c65.5 -53.8008 149.35 -86.1006 240.75 -86.1006z" />
    <glyph glyph-name="uniF131" unicode="&#xf131;" 
d="M850 752.5v-517.55c0 -26.1006 -22.5996 -38.5498 -50 -58c-22 -15.6504 -50 3.75 -50 29.3496v505.7c0 10.5498 -3.7002 20.5996 -15.7002 26.75s-386.899 203.25 -386.899 203.25c-6.05078 2.25 -32.4502 18.9004 -67.6504 0.799805
c-33.4502 -17.2002 -51.6504 -35.8994 -56.2998 -44.7002l409 -224.1c10.8496 -5.7002 17.5498 -14.5 17.5498 -25.7998v-540.101c0 -11.5 -7.09961 -23.7998 -18.4502 -29.25c-5.2002 -2.59961 -10.9502 -3.84961 -16.6494 -3.84961
c-6.75 0 -13.5508 1.65039 -19.3008 5.2002c-10.75 6.5498 -388.699 238.3 -413.649 253.35c-12 7.2002 -26.0498 21.9502 -26.3506 32.9004l-5.59961 514.3c0 9.90039 -1.15039 27.3496 14.4502 51.5996c34.8496 54.2002 156.45 115.851 218 83.9004l449.95 -227.75
c10.8496 -5.59961 17.5996 -16.7998 17.5996 -36z" />
    <glyph glyph-name="uniF132" unicode="&#xf132;" 
d="M700 950v-850l-200 200l-200 -200v850c0 27.6504 29.25 51 50 50h300c34.4502 1 50 -22.3496 50 -50z" />
    <glyph glyph-name="uniF133" unicode="&#xf133;" 
d="M750 1050c27.6504 0 50 -22.3496 50 -50v-800l-150 180l-48.8496 -59.0498v567.95c0 55.1494 -44.9004 100 -100 100l-1.15039 11.0996c0 27.6504 22.3496 50 50 50h200zM451.15 900c27.6494 0 48.8496 -22.3496 48.8496 -50v-800l-150 180l-150 -180v800
c0 27.6504 22.3496 50 50 50h201.15z" />
    <glyph glyph-name="uniF134" unicode="&#xf134;" 
d="M847.45 676.4l3 4.0498c19.1494 -18.5498 29.2002 -38.3506 29.2002 -57.9004v-100c0 -45.8994 -50 -447.45 -400 -447.45s-379.101 401.551 -379.101 447.45v100c0 74.4502 144.15 152.55 389.55 152.55c1 0 1.90039 -0.0996094 2.85059 -0.0996094l-29.5 -73.6504
c-165.351 -6.09961 -280.351 -67.3994 -280.25 -90.9492c0 -24.8008 127.35 -91.5 306.899 -91.6006h5.05078c147.55 7.5 243.5 12.5 352.3 157.601zM879.45 914.9c22.0996 -16.6006 26.5498 -47.9502 9.9502 -70c0 0 -6.5 -8.7002 -95.9502 -128.051
c-89.5 -119.199 -159.25 -123.199 -303.351 -130.55l162.95 407.101c10.2002 25.7998 39.6006 38.1992 65 27.9492c25.6504 -10.3496 38.1504 -39.4492 27.8506 -65.0498l-116.801 -291.899l180.4 240.449c16.5 22.1504 47.9004 26.5508 69.9502 10.0508z" />
    <glyph glyph-name="uniF135" unicode="&#xf135;" 
d="M919.95 950c16.5498 0 30.0498 -13.3496 30.0498 -30v-120h-900v120c0 16.6504 13.4004 30 30 30h839.95zM100 220v530h799.95v-530c0 -38.4502 -31.5 -70 -70 -70h-660c-38.5 0 -69.9502 31.5 -69.9502 70zM350 650v-100h300v100h-300z" />
    <glyph glyph-name="uniF136" unicode="&#xf136;" 
d="M450 550v-100h-450s7.25 226.35 9.9502 292.7c2.75 66.2998 26.2002 107.3 100 107.3h160.45c24.7998 46.9004 51.5498 97.25 59.7998 112.8c16.5996 31.1504 22.2002 37.2002 58.9502 37.2002h221.649c36.75 0 42.4004 -6.0498 58.9502 -37.2002
c8.25 -15.5498 35 -65.8994 59.8496 -112.8h160.4c73.75 0 97.5 -41 100 -107.3c2.5498 -69.75 10 -292.7 10 -292.7h-450v100h-100zM382.45 904.2c-4.2998 -8 -15.9004 -30 -28.75 -54.2002h292.5c-12.8506 24.2002 -24.4502 46.2002 -28.75 54.2002
c-11.4004 21.5996 -15.3506 25.7998 -40.7998 25.7998h-153.351c-25.4502 0 -29.3496 -4.2002 -40.8496 -25.7998zM550 300v100h425s-5.65039 -87.7002 -10 -166.1c-1.75 -31.5508 -10.9004 -83.9004 -90 -83.9004h-750.05c-79.1006 0 -88.4502 52.25 -90 83.9004
c-3.75 76.25 -9.9502 166.1 -9.9502 166.1h425v-100h100z" />
    <glyph glyph-name="uniF137" unicode="&#xf137;" 
d="M900 950c55 0 100 -45 100 -100v-600c0 -55 -45 -100 -100 -100h-800c-55 0 -100 45 -100 100v600c0 55 45 100 100 100h800zM225 862.5c-20.7002 0 -37.5 -16.7998 -37.5 -37.5s16.7998 -37.5 37.5 -37.5s37.5 16.7998 37.5 37.5s-16.7998 37.5 -37.5 37.5zM87.5 825
c0 -20.7002 16.7998 -37.5 37.5 -37.5s37.5 16.7998 37.5 37.5s-16.7998 37.5 -37.5 37.5s-37.5 -16.7998 -37.5 -37.5zM900 250v450h-800v-450h800zM900 800l0.950195 50h-600.95v-50h600z" />
    <glyph glyph-name="uniF138" unicode="&#xf138;" 
d="M138.15 371.85c48.7998 48.0508 119.949 34.4502 172.3 -16.9492c52.3496 -51.5 66.1494 -121.4 17.2998 -169.45c-115.05 -113.101 -347.35 -128.7 -301.95 -77.5498c100.601 113.149 36.6006 189.55 112.351 263.949zM976.95 1017.05
c38.8994 -38.1494 -311.7 -461.05 -439.75 -586.85c-63.5498 -62.4004 -97.6006 -83.2998 -123.101 -102.45c-11.0498 -8.2998 -14.4492 2.7002 -17.0996 7.59961c-13 24.8008 -25.1504 42.1006 -47.9502 64.4502c-22.75 22.3506 -40.3496 34.25 -65.5498 47.1504
c-4.9502 2.5498 -16.2002 5.84961 -7.7002 16.7998c19.4502 25 40.6504 58.5 104.2 121c128 125.85 558.15 470.5 596.95 432.3z" />
    <glyph glyph-name="uniF139" unicode="&#xf139;" 
d="M550 1000c245.35 0 399.9 -79.5996 389.5 -147.5c-10.5498 -68.9004 -88.2002 -610.5 -92.5996 -639.35c-4.55078 -28.9004 -117.4 -112.95 -296.9 -113.15c-179.5 0.200195 -292.35 84.25 -296.85 113.2c-1.30078 8.2998 -2.25 39.4502 -4.80078 55.6494
c110.301 -6.94922 226.75 52.6006 303.2 151.25c37.9502 0.850586 68.4502 31.8008 68.4502 69.9004c0 38.6504 -31.2998 70 -70 70c-38.6504 0 -70 -31.2998 -70 -70c0 -12.8496 3.5498 -25 9.65039 -35.3496c-64.25 -77.25 -163.4 -122.45 -245.801 -114.75
c-144.35 13.5 -210.05 91.6992 -216.399 164.75c-5.35059 61.75 34.5 137.5 154.75 184.199c-10.4502 66.4004 -18.7002 144.2 -21.7002 163.65c-10.4004 67.9004 144.1 147.5 389.5 147.5zM97.1504 510.75c3.44922 -39.2998 48.1494 -81.0996 128.35 -96.75
c-10.0996 63.8496 -21.5996 136.7 -32.1504 203.7c-73.4492 -32.0498 -98.9492 -74.7998 -96.1992 -106.95zM550 748.8c179.5 0.100586 306.85 66.7002 306.85 91.6006c0.100586 24.6992 -127.35 89.5 -306.85 89.3994c-179.5 0.100586 -306.95 -64.7002 -306.85 -89.3994
c0 -24.9004 127.35 -91.5 306.85 -91.6006z" />
    <glyph glyph-name="uniF13A" unicode="&#xf13a;" 
d="M500 1000c110.461 0 200 -89.542 200 -200h-400c0 110.458 89.5391 200 200 200zM950 550c27.6123 0 50 -22.3848 50 -50c0 -27.6123 -22.3877 -50 -50 -50h-150c0 -38.998 -7.8125 -76.041 -21.3623 -110.187c2.20898 -1.58105 4.73633 -2.47559 6.71387 -4.45898
l141.431 -141.418c19.5195 -19.5283 19.5195 -51.1875 0 -70.7129c-19.5312 -19.5254 -51.1963 -19.5254 -70.7148 0l-130.078 130.075c-44.6172 -51.0742 -106.128 -87.0547 -175.989 -98.8008v495.502h-100v-495.502c-69.8613 11.7461 -131.372 47.7266 -175.989 98.8037
l-130.078 -130.078c-19.5186 -19.5254 -51.1836 -19.5254 -70.7148 0c-19.5195 19.5254 -19.5195 51.1846 0 70.7129l141.431 141.418c1.97754 1.9834 4.50391 2.87793 6.71387 4.45898c-13.5498 34.1455 -21.3623 71.1885 -21.3623 110.187h-150
c-27.6123 0 -50 22.3877 -50 50c0 27.6152 22.3877 50 50 50h150v124.842c0 1.38477 0.330078 2.67578 0.40332 4.04297l-110.755 110.761c-19.5312 19.5254 -19.5312 51.1836 0 70.709c19.5195 19.5283 51.1846 19.5283 70.7031 0l110.767 -110.761
c1.36719 0.0732422 2.64941 0.40625 4.02832 0.40625h449.707c1.37891 0 2.66113 -0.333008 4.02832 -0.40625l110.767 110.761c19.5195 19.5283 51.1846 19.5283 70.7031 0c19.5312 -19.5254 19.5312 -51.1836 0 -70.709l-110.754 -110.761
c0.0722656 -1.36719 0.402344 -2.6582 0.402344 -4.04297v-124.842h150z" />
    <glyph glyph-name="uniF13B" unicode="&#xf13b;" 
d="M479.2 748.2c-76.7002 0 -108.45 74.5498 -91.5 140.75c22.7002 88.25 144.45 159.149 209.5 159.149c68.7002 0 -69.6006 -73.0996 -26.0498 -157.75c37.5996 -73.0996 5.64941 -142.149 -91.9502 -142.149zM739.8 300.65c59.75 -51.5 148.45 -52.75 210.3 -5.05078
v-195.6c0 -27.5996 -22.3994 -50 -50 -50h-800c-27.5996 0 -50 22.4004 -50 50v195.65c61.8506 -47.8008 150.551 -46.4004 210.2 5l22.2002 19.1494c24.25 21 62.3496 20.9502 86.7002 0.0498047l22.2002 -19.1992c30.9492 -26.6504 69.7998 -40 108.649 -40
c38.8506 0 77.7002 13.3496 108.7 40.0498l22.0996 19.0996c24.25 20.9004 62.4004 21 86.75 0zM500 700c378.7 0 450 -168.05 450 -250v-23.4502l-58.2998 -50.1494c-24.25 -20.8506 -62.4004 -21.0508 -86.75 0l-22.2002 19.1494
c-61.9502 53.2998 -155.3 53.2998 -217.3 -0.0498047l-22.1006 -19.0996c-24.5 -21.0508 -62.5498 -20.9004 -86.75 -0.0507812l-22.1992 19.2002c-62 53.2998 -155.4 53.25 -217.25 0l-22.2002 -19.1494c-24.2998 -20.8506 -62.4502 -21.0508 -86.75 0l-58.2002 50.1494
v23.4502c0 81.9502 71.2998 250 450 250z" />
    <glyph glyph-name="uniF13C" unicode="&#xf13c;" 
d="M730 1000c38.4502 0 70 -31.4502 70 -70v-760c0 -38.4502 -31.5498 -70 -70 -70h-460.1c-38.4502 0 -69.9004 31.5 -69.9004 70v760c0 38.5498 31.4502 70 69.9004 70h460.1zM350 450c-34.5 0 -62.5 -22.3496 -62.5 -50s28 -50 62.5 -50c34.4502 0 62.5 22.3496 62.5 50
s-28.0498 50 -62.5 50zM287.5 550c0 -27.6504 28 -50 62.5 -50c34.4502 0 62.5 22.3496 62.5 50s-28.0498 50 -62.5 50c-34.5 0 -62.5 -22.3496 -62.5 -50zM350 300c-34.5 0 -62.5 -22.3496 -62.5 -50s28 -50 62.5 -50c34.4502 0 62.5 22.3496 62.5 50s-28.0498 50 -62.5 50
zM500 450c-34.5 0 -62.5 -22.3496 -62.5 -50s28 -50 62.5 -50c34.4502 0 62.5 22.3496 62.5 50s-28.0498 50 -62.5 50zM437.5 550c0 -27.6504 28 -50 62.5 -50c34.4502 0 62.5 22.3496 62.5 50s-28.0498 50 -62.5 50c-34.5 0 -62.5 -22.3496 -62.5 -50zM500 300
c-34.5 0 -62.5 -22.3496 -62.5 -50s28 -50 62.5 -50c34.4502 0 62.5 22.3496 62.5 50s-28.0498 50 -62.5 50zM650 450c-34.5 0 -62.5 -22.3496 -62.5 -50s28 -50 62.5 -50c34.4502 0 62.5 22.3496 62.5 50s-28.0498 50 -62.5 50zM587.5 550c0 -27.6504 28 -50 62.5 -50
c34.4502 0 62.5 22.3496 62.5 50s-28.0498 50 -62.5 50c-34.5 0 -62.5 -22.3496 -62.5 -50zM650 300c-34.5 0 -62.5 -22.3496 -62.5 -50s28 -50 62.5 -50c34.4502 0 62.5 22.3496 62.5 50s-28.0498 50 -62.5 50zM250 700h500v150h-500v-150z" />
    <glyph glyph-name="uniF13D" unicode="&#xf13d;" 
d="M850 900c55 0 100 -45 100 -100v-600c0 -55 -45 -100 -100 -100h-700c-55.0498 0 -100 45 -100 100v600c0 55 44.9502 100 100 100h50v-100h150v100h300v-100h150v100h50zM850 200v400h-700v-400h700zM325 1000v-175h-100v175h100zM775 1000v-175h-100v175h100z" />
    <glyph glyph-name="uniF13E" unicode="&#xf13e;" 
d="M500 650c82.7998 0 150 -67.2002 150 -150s-67.2002 -150 -150 -150c-82.8496 0 -150 67.2002 -150 150s67.1504 150 150 150zM900 800c55 0 100 -45 100 -100v-450c0 -55 -45 -100 -100 -100h-800c-55 0 -100 45 -100 100v450c0 55 45 100 100 100h120
c16.5 0 34.25 12.7998 39.4502 28.5l31.0996 93.0996c5.15039 15.6006 22.9502 28.4004 39.4502 28.4004h340c16.5498 0 34.25 -12.7998 39.5 -28.4502l31.0498 -93.0498c5.15039 -15.7002 22.9502 -28.5 39.4502 -28.5h120zM500 250c138.05 0 250 111.9 250 250
s-111.95 250 -250 250c-138.1 0 -250 -111.9 -250 -250s111.9 -250 250 -250zM875 640c19.3496 0 35 15.7002 35 35.0498c0 19.2998 -15.6504 35 -35 35s-35 -15.75 -35 -35c0 -19.3496 15.6504 -35.0498 35 -35.0498z" />
    <glyph glyph-name="uniF13F" unicode="&#xf13f;" 
d="M34.25 550h118.6v10.25c5.40039 221.7 186.2 399.8 408.45 399.8c225.75 0 408.7 -183.6 408.7 -410.05s-182.95 -409.95 -408.7 -409.95c-94.8994 0 -182.25 32.5 -251.649 86.9004l70.2998 75.2002c50.7998 -37.4004 113.5 -59.6504 181.35 -59.6504
c169.3 0 306.55 137.7 306.55 307.5s-137.25 307.5 -306.55 307.5c-165.85 0 -300.899 -132.15 -306.25 -297.25v-10.25h133.601l-174.7 -194.7z" />
    <glyph glyph-name="uniF140" unicode="&#xf140;" 
d="M290 440v-0.0498047h350c3.40039 0 6.7998 0.349609 10 1.0498v-91c0 -55 -45 -100 -100 -100h-250l-150 -150v150h-50c-55 0 -100 45 -100 100v300c0 55 45 100 100 100h190v-310zM900 1000c55 0 100 -45 100 -100v-300c0 -55.0498 -45 -100 -100 -100h-50v-150
l-150 150h-350v400c0 55 45 100 100 100h450z" />
    <glyph glyph-name="uniF141" unicode="&#xf141;" 
d="M414.7 200.1c-21.75 0 -42.3506 10.1504 -55.5498 27.6504l-178.65 236.05c-23.25 30.6504 -17.2002 74.2998 13.5 97.5498c30.75 23.3506 74.4004 17.2002 97.6504 -13.5l117.55 -155.199l295.55 474.6c20.3496 32.5996 63.3496 42.5996 96.0498 22.25
c32.6504 -20.2998 42.7002 -63.2998 22.2998 -96l-349.199 -560.5c-12.1006 -19.5498 -33.0508 -31.75 -56 -32.7998c-1.10059 -0.100586 -2.10059 -0.100586 -3.2002 -0.100586z" />
    <glyph glyph-name="uniF142" unicode="&#xf142;" 
d="M225.8 672.6c21.7998 22.3008 52.1504 24.0508 78.7998 0l195.4 -187.35l195.4 187.35c26.6494 24.0508 57.0498 22.3008 78.6992 0c21.8008 -22.25 20.4004 -59.8496 0 -80.75c-20.2998 -20.8994 -234.75 -225.1 -234.75 -225.1
c-10.8496 -11.1504 -25.0996 -16.75 -39.3496 -16.75s-28.5 5.59961 -39.4502 16.75c0 0 -214.35 204.2 -234.75 225.1c-20.4502 20.9004 -21.7998 58.5 0 80.75z" />
    <glyph glyph-name="uniF143" unicode="&#xf143;" 
d="M622.6 824.2c22.3008 -21.7998 24.0508 -52.1504 0 -78.7998l-187.35 -195.4l187.35 -195.4c24.0508 -26.6494 22.3008 -57.0498 0 -78.6992c-22.25 -21.8008 -59.8496 -20.4004 -80.75 0c-20.8994 20.2998 -225.1 234.75 -225.1 234.75
c-11.1504 10.8496 -16.75 25.0996 -16.75 39.3496s5.59961 28.5 16.75 39.4502c0 0 204.2 214.35 225.1 234.75c20.9004 20.4502 58.5 21.7998 80.75 0z" />
    <glyph glyph-name="uniF144" unicode="&#xf144;" 
d="M458.15 824.2c20.8994 -20.4004 225.1 -234.75 225.1 -234.75c11.1504 -10.9502 16.75 -25.2002 16.75 -39.4502s-5.59961 -28.5 -16.75 -39.3496c0 0 -204.2 -214.45 -225.1 -234.75c-20.9004 -20.4004 -58.5 -21.8008 -80.75 0
c-22.3008 21.6992 -24.0508 52.0498 0 78.6992l187.35 195.4l-187.35 195.4c-24.0508 26.6494 -22.3008 57.0498 0 78.7998c22.25 21.7998 59.8496 20.4502 80.75 0z" />
    <glyph glyph-name="uniF145" unicode="&#xf145;" 
d="M670.9 657.05c13.5498 13.4004 35.4492 13.4004 48.8994 0c13.5 -13.3994 13.6006 -35.0498 0 -48.4502l-195.399 -191.5c-13.5 -13.3994 -35.3506 -13.3994 -48.9502 0l-195.4 191.5c-13.5 13.3506 -13.5 35.0508 0 48.4502c13.5498 13.4004 35.4502 13.4004 48.9004 0
l171.05 -157.05z" />
    <glyph glyph-name="uniF146" unicode="&#xf146;" 
d="M607.05 379.1c13.4004 -13.5498 13.4004 -35.4492 0 -48.8994c-13.3994 -13.5 -35.0498 -13.6006 -48.4502 0l-191.5 195.399c-13.3994 13.5 -13.3994 35.3506 0 48.9502l191.5 195.4c13.3506 13.5 35.0508 13.5 48.4502 0c13.4004 -13.5498 13.4004 -35.4502 0 -48.9004
l-157.05 -171.05z" />
    <glyph glyph-name="uniF147" unicode="&#xf147;" 
d="M550 550l-157.05 171c-13.4004 13.5 -13.4004 35.3496 0 48.9004c13.3994 13.5 35.0498 13.5 48.4502 0l191.5 -195.4c13.3994 -13.5498 13.3994 -35.4502 0 -48.9502l-191.5 -195.399c-13.3506 -13.6006 -35.0508 -13.5 -48.4502 0
c-13.4004 13.4492 -13.4004 35.3496 0 48.8994z" />
    <glyph glyph-name="uniF148" unicode="&#xf148;" 
d="M329.1 442.95c-13.5498 -13.4004 -35.4492 -13.4004 -48.8994 0c-13.4502 13.3994 -13.6006 35.0498 0 48.4502l195.399 191.5c13.5 13.3994 35.3506 13.3994 48.9502 0l195.4 -191.5c13.5 -13.3506 13.5 -35.0508 0 -48.4502
c-13.5498 -13.4004 -35.4502 -13.4004 -48.9502 0l-171 157.05z" />
    <glyph glyph-name="uniF149" unicode="&#xf149;" 
d="M870.9 744.55c13.5996 13.4004 35.4492 13.4004 48.9492 0c13.5 -13.3994 13.5508 -35.0498 0 -48.4502l-395.399 -391.5c-13.5 -13.3994 -35.3506 -13.3994 -48.9502 0l-395.4 391.5c-13.5 13.4004 -13.5 35.0508 0 48.4502c13.5508 13.4004 35.4502 13.4004 48.9502 0
l370.95 -357.05z" />
    <glyph glyph-name="uniF14A" unicode="&#xf14a;" 
d="M694.55 179.1c13.4004 -13.5996 13.4004 -35.4492 0 -48.9492c-13.3994 -13.5 -35.0498 -13.5508 -48.4502 0l-391.5 395.399c-13.3994 13.5 -13.3994 35.3506 0 48.9502l391.5 395.4c13.4004 13.5 35.0508 13.5 48.4502 0c13.4004 -13.5508 13.4004 -35.4502 0 -48.9502
l-357.05 -370.95z" />
    <glyph glyph-name="uniF14B" unicode="&#xf14b;" 
d="M662.5 550l-357.05 371c-13.4004 13.5 -13.4004 35.3496 0 48.9502c13.3994 13.5 35.0498 13.5 48.4502 0l391.5 -395.4c13.3994 -13.5498 13.3994 -35.4502 0 -48.9502l-391.5 -395.399c-13.4004 -13.5498 -35.0508 -13.5 -48.4502 0
c-13.4004 13.4502 -13.4004 35.3496 0 48.9502z" />
    <glyph glyph-name="uniF14C" unicode="&#xf14c;" 
d="M129.1 355.45c-13.5996 -13.4004 -35.4492 -13.4004 -48.9492 0c-13.5 13.3994 -13.5508 35.0498 0 48.4502l395.399 391.5c13.5 13.3994 35.3506 13.3994 48.9502 0l395.4 -391.5c13.5 -13.4004 13.5 -35.0508 0 -48.4502
c-13.5508 -13.4004 -35.4502 -13.4004 -48.9004 0l-371 357.05z" />
    <glyph glyph-name="uniF14D" unicode="&#xf14d;" 
d="M774.2 427.4c-21.7998 -22.3008 -52.1504 -24.0508 -78.7998 0l-195.4 187.35l-195.4 -187.35c-26.6494 -24.0508 -57.0498 -22.3008 -78.6992 0c-21.8008 22.25 -20.4004 59.8496 0 80.75c20.2998 20.8994 234.75 225.1 234.75 225.1
c10.8496 11.1504 25.0996 16.75 39.3496 16.75s28.5 -5.59961 39.4502 -16.75c0 0 214.35 -204.2 234.75 -225.1c20.4502 -20.9004 21.7998 -58.5 0 -80.75z" />
    <glyph glyph-name="uniF14E" unicode="&#xf14e;" 
d="M625.25 615.1c9.9502 9.80078 25.9502 9.80078 35.7998 0c9.90039 -9.7998 9.9502 -25.75 0 -35.5l-143.2 -140.35c-9.84961 -9.7998 -25.8994 -9.7998 -35.8496 0l-143.2 140.35c-9.84961 9.75 -9.84961 25.7002 0 35.5c10 9.80078 26 9.80078 35.9004 0l125.3 -115.1z
M500 1030c265.1 0 480 -214.9 480 -480c0 -265.15 -214.9 -480 -480 -480s-480 214.85 -480 480c0 265.1 214.9 480 480 480zM500 132.3c230.65 0 417.7 187 417.7 417.7s-187.05 417.7 -417.7 417.7c-230.75 0 -417.7 -187 -417.7 -417.7s186.95 -417.7 417.7 -417.7z" />
    <glyph glyph-name="uniF14F" unicode="&#xf14f;" 
d="M565.1 711.2c9.80078 -10 9.80078 -26 0 -35.9004l-115.1 -125.3l115.1 -125.25c9.80078 -9.9502 9.80078 -26 0 -35.8496c-9.7998 -9.90039 -25.75 -9.9502 -35.5 0l-140.35 143.199c-9.7998 9.85059 -9.7998 25.9004 0 35.8506l140.35 143.25
c9.75 9.84961 25.7002 9.84961 35.5 0zM500 1030c265.1 0 480 -214.9 480 -480c0 -265.15 -214.9 -480 -480 -480s-480 214.85 -480 480c0 265.1 214.9 480 480 480zM500 132.3c230.65 0 417.7 187 417.7 417.7s-187.05 417.7 -417.7 417.7
c-230.75 0 -417.7 -187 -417.7 -417.7s186.95 -417.7 417.7 -417.7z" />
    <glyph glyph-name="uniF150" unicode="&#xf150;" 
d="M550 550l-115.1 125.3c-9.80078 9.90039 -9.80078 25.9502 0 35.9004c9.7998 9.84961 25.75 9.84961 35.5 0l140.35 -143.2c9.7998 -9.9502 9.7998 -26 0 -35.8496l-140.35 -143.2c-9.75 -9.9502 -25.7002 -9.90039 -35.5 0c-9.80078 9.84961 -9.80078 25.8994 0 35.8496
zM500 1030c265.1 0 480 -214.9 480 -480c0 -265.15 -214.9 -480 -480 -480s-480 214.85 -480 480c0 265.1 214.9 480 480 480zM500 132.3c230.65 0 417.7 187 417.7 417.7s-187.05 417.7 -417.7 417.7c-230.75 0 -417.7 -187 -417.7 -417.7
c-0.0498047 -230.7 186.95 -417.7 417.7 -417.7z" />
    <glyph glyph-name="uniF151" unicode="&#xf151;" 
d="M517.95 660.75l143.25 -140.35c9.84961 -9.75 9.84961 -25.7002 0 -35.5c-10 -9.80078 -26 -9.80078 -35.9004 0l-125.3 115.1l-125.25 -115.1c-9.9502 -9.80078 -26 -9.80078 -35.8496 0c-9.90039 9.7998 -9.9502 25.75 0 35.5l143.199 140.35
c9.85059 9.7998 25.9004 9.7998 35.8506 0zM500 1030c265.1 0 480 -214.9 480 -480c0 -265.15 -214.9 -480 -480 -480s-480 214.85 -480 480c0 265.1 214.9 480 480 480zM500 132.3c230.65 0 417.7 187 417.7 417.7s-187.05 417.7 -417.7 417.7
c-230.75 0 -417.7 -187 -417.7 -417.7s186.95 -417.7 417.7 -417.7z" />
    <glyph glyph-name="uniF152" unicode="&#xf152;" 
d="M500 970c231.95 0 420 -188.05 420 -420s-188.05 -420 -420 -420s-420 188.05 -420 420s188.05 420 420 420zM739.45 396.95l-153.05 153.05l153.1 153.05l-86.4502 86.4502l-153.05 -153.05l-153 153l-86.4502 -86.4004l153.05 -153.05l-153.1 -153l86.4502 -86.4502
l153.05 153l153 -153.05z" />
    <glyph glyph-name="uniF153" unicode="&#xf153;" 
d="M500 970c231.95 0 420 -188.05 420 -420s-188.05 -420 -420 -420s-420 188.05 -420 420s188.05 420 420 420zM750 500v100h-500v-100h500z" />
    <glyph glyph-name="uniF154" unicode="&#xf154;" 
d="M500 970c231.95 0 420 -188.05 420 -420s-188.05 -420 -420 -420s-420 188.05 -420 420s188.05 420 420 420zM750 500v100h-200v200h-100v-200h-200v-100h200v-200h100v200h200z" />
    <glyph glyph-name="uniF155" unicode="&#xf155;" 
d="M500 1030c265.05 0 480 -214.9 480 -479.95c0 -265.149 -214.95 -480.05 -480 -480.05c-265.1 0 -480 214.9 -480 480s214.9 480 480 480zM500 170.05c209.85 0 380.05 170.05 380.05 379.95s-170.2 380 -380.05 380c-209.9 0 -380 -170.05 -380 -379.95
c0 -209.899 170.15 -380 380 -380z" />
    <glyph glyph-name="uniF156" unicode="&#xf156;" 
d="M879.2 581.4c-2.65039 34.3496 -10 67.3496 -21.2002 98.5l87.7998 50.6992c18.75 -46.5498 30.1504 -96.75 33.4004 -149.199h-100zM705.05 985.25l-50.0996 -86.7998c-32.5498 14.5 -67.5498 24.3994 -104.2 29.25v101.05
c54.7998 -5.65039 106.55 -20.9502 154.3 -43.5zM812.1 768.9c-20.2998 29 -44.3994 55.0996 -71.8496 77.3994l50.2998 87.1006c42.1006 -32 79.0498 -70.3506 108.601 -114.25zM500.7 171.45c185.899 0 340.399 133.6 373.3 309.95h101.05
c-33.9502 -231.851 -233.1 -410 -474.3 -410c-265.15 0 -480.05 214.899 -480.05 480.05c0 248.2 188.399 452.35 430.05 477.35v-101.05c-186.2 -24.5 -330.05 -183.4 -330.05 -376.3c0 -209.9 170.149 -380 380 -380z" />
    <glyph glyph-name="uniF157" unicode="&#xf157;" 
d="M1000 900v-700c0 -27.5996 -22.3496 -50 -50 -50h-900c-27.6504 0 -50 22.4004 -50 50v700c0 27.6504 22.3496 50 50 50h50l150 -150h125l-150 150h150l150 -150h125l-150 150h150l150 -150h125l-150 150h175c27.6504 0 50 -22.4004 50 -50z" />
    <glyph glyph-name="uniF158" unicode="&#xf158;" 
d="M800 1050c55.0498 0 100 -44.9502 100 -100v-750c0 -27.5996 -22.3496 -50 -50 -50v-100h-700v100c-27.6504 0 -50 22.4004 -50 50v750c0 55.0498 45 100 100 100h600zM700 300v50h-200v-50h200zM750 500v400h-500v-400h500z" />
    <glyph glyph-name="uniF159" unicode="&#xf159;" 
d="M780 950c38.4502 0 70 -31.4502 69.9502 -70v-760c0 -38.4502 -31.5 -70 -70 -70h-560c-38.5 0 -69.9502 31.5 -69.9502 70v760c0 38.5498 31.4502 70 70 70l60 -150h440zM680 850h-360.05l-44.9502 100h109l36 100h160l35.9502 -100h109.05z" />
    <glyph glyph-name="uniF15A" unicode="&#xf15a;" 
d="M500 1030c265.05 0 480 -214.9 480 -480c0 -265.15 -214.95 -480.05 -480 -480.05c-265.15 0 -480.05 214.899 -480.05 480.05c0 265.1 214.899 480 480.05 480zM499.95 170c209.85 0 380.05 170.15 380.05 380c0 209.9 -170.2 380 -380.05 380
c-209.9 0 -380 -170.15 -380 -380c0 -209.9 170.149 -380 380 -380zM550 583.5l179.65 176.5c11.7998 -11.8496 22.4492 -24.75 32.3496 -38.2998l-212 -208.3v-8.40039c0 -13.75 -9.65039 -30.5498 -21.5498 -37.4004l-205.75 -118.85l-50 86.5996l177.3 102.4v312.25h100
v-266.5z" />
    <glyph glyph-name="uniF15B" unicode="&#xf15b;" 
d="M1000 484c0 -129.2 -107.2 -234 -239.35 -234h-579.801c-99.8994 0 -180.85 79.2002 -180.85 176.85c0 97.5508 80.9502 176.75 180.85 176.75c7.30078 0 14.4004 -0.599609 21.4502 -1.34961c-1.84961 12.2998 -2.84961 24.9004 -2.84961 37.7998
c0 143.55 119.05 259.95 266 259.95c120.35 0 221.95 -78.0996 254.8 -185.35c13.1504 2.14941 26.5996 3.2998 40.4502 3.2998c132.1 0 239.3 -104.65 239.3 -233.95z" />
    <glyph glyph-name="uniF15C" unicode="&#xf15c;" 
d="M285.95 312.5c-11.7998 0 -23.7002 4.15039 -33.2002 12.5996l-253 224.9l267.05 237.4c20.6006 18.25 52.2002 16.5 70.5498 -4.15039c18.3506 -20.6504 16.5 -52.25 -4.14941 -70.5996l-182.95 -162.65l168.9 -150.1c20.6494 -18.3506 22.5 -49.9502 4.14941 -70.6006
c-9.84961 -11.1494 -23.5996 -16.7998 -37.3496 -16.7998zM733.2 312.6c-9.5 -8.44922 -21.4004 -12.5996 -33.2002 -12.5996c-13.75 0 -27.5 5.65039 -37.3496 16.7998c-18.3506 20.6504 -16.5 52.25 4.14941 70.6006l182.95 162.6l-168.9 150.15
c-20.6494 18.3496 -22.5 49.9492 -4.14941 70.5996c18.2998 20.6504 49.8994 22.5 70.5498 4.15039l253 -224.9zM499.3 241.75c-4.0498 -24.4004 -25.25 -41.75 -49.25 -41.75c-2.75 0 -5.4502 0.200195 -8.25 0.650391c-27.25 4.5498 -45.6494 30.2998 -41.0996 57.5498
l100 600c4.4502 27.25 30.1494 45.7002 57.5 41.0996c27.25 -4.5498 45.6494 -30.2998 41.0996 -57.5498z" />
    <glyph glyph-name="uniF15D" unicode="&#xf15d;" 
d="M839.15 550c0 -52.3496 32.2998 -93.6504 80.9492 -122.1c-8.75 -29.3008 -20.3496 -57.25 -34.5996 -83.6006c-54.4502 14.1504 -98.5 -7.14941 -135.55 -44.1494c-37.1006 -37.1006 -48.4004 -81.1504 -34.1504 -135.551
c-26.3994 -14.25 -54.3994 -25.8496 -83.5996 -34.6494c-28.4502 48.5996 -79.7998 80.8496 -132.15 80.8496c-52.3994 0 -103.75 -32.2002 -132.149 -80.8496c-29.25 8.75 -57.25 20.3994 -83.6006 34.6494c14.25 54.4004 2.85059 98.4502 -34.2002 135.551
c-37 37.0498 -81.0498 48.3496 -135.55 34.0996c-14.25 26.4004 -25.7998 54.4004 -34.5498 83.5996c48.5 28.4502 80.75 79.8008 80.75 132.15c0 52.4502 -32.25 93.75 -80.75 122.15c8.7002 29.1992 20.2998 57.25 34.5498 83.5996
c54.5 -14.25 98.5498 7.0498 135.55 44.1504c37.1504 37 48.4502 81.0498 34.2002 135.55c26.3506 14.25 54.2998 25.8994 83.5498 34.5498c28.4502 -48.5 79.75 -80.75 132.15 -80.75c52.3496 0 103.7 32.25 132.1 80.75c29.2002 -8.65039 57.25 -20.2998 83.6006 -34.5498
c-14.25 -54.5 -2.90039 -98.5498 34.1494 -135.55c37.0508 -37.1006 81.1006 -58.4004 135.551 -44.1504c14.25 -26.3496 25.7998 -54.4004 34.5996 -83.5996c-48.5498 -28.4004 -80.8496 -69.7002 -80.8496 -122.15zM500 367.4c100.9 0 182.6 81.6992 182.6 182.6
c0 100.85 -81.6992 182.7 -182.6 182.7c-100.85 0 -182.65 -81.7998 -182.65 -182.7c0 -100.85 81.75 -182.6 182.65 -182.6z" />
    <glyph glyph-name="uniF15E" unicode="&#xf15e;" 
d="M158.95 750.1l76.3496 -63.2998l190.351 -417.7l-394.4 327.101c-21.0996 17.4502 -24.0498 49.2002 -6.5498 70.3496l63.8496 76.9502c17.5498 21.0996 49.25 24.0996 70.4004 6.59961zM350.65 915.85c25 11.4004 54.7998 0.25 66.2998 -24.75l41.0996 -90.1992
l-10.6494 -458.95l-212.5 466.25c-11.3506 24.9502 -0.200195 54.7998 24.75 66.2002zM710.55 905.65l-2.34961 -99.1504l-209.5 -408.35l11.9502 512.149c0.649414 27.4502 23.6494 49.4502 51.0996 48.7998l100 -2.2998
c27.4502 -0.649414 49.4502 -23.6494 48.7998 -51.1494zM959.55 858.15c24.4502 -12.5508 34.2002 -42.8506 21.6504 -67.4004l-319.55 -622.8c-12.5508 -24.4502 -42.8506 -34.2002 -67.3008 -21.6504l-88.9492 45.6504c-24.5 12.5498 -34.25 42.8994 -21.7002 67.3496
l319.55 622.8c12.5498 24.4502 42.9004 34.2002 67.3496 21.7002zM639.95 235.35c12.5996 24.5508 2.9502 54.7002 -21.6504 67.25c-24.5996 12.6006 -54.7002 2.9502 -67.2998 -21.6494c-12.5996 -24.6006 -2.9502 -54.7002 21.6504 -67.2998
c24.5498 -12.6006 54.6992 -2.90039 67.2998 21.6992z" />
    <glyph glyph-name="uniF15F" unicode="&#xf15f;" 
d="M272.7 322.6c0 0 31.3496 228.45 128.8 325.9s325.9 128.8 325.9 128.8s-31.3008 -228.45 -128.801 -325.899c-97.5 -97.4502 -325.899 -128.801 -325.899 -128.801zM450.85 599.25c-27.25 -27.25 -27.25 -71.3496 0 -98.5c27.1504 -27.25 71.3008 -27.25 98.4502 0
c40.75 40.5996 69.9502 119.5 88 186.6c-67.2002 -18.0996 -145.55 -47.1992 -186.45 -88.0996zM500.05 1030c265.05 0 480 -214.9 480 -480c0 -265.15 -214.95 -480.05 -480 -480.05c-265.149 0 -480.05 214.899 -480.05 480.05c0 265.1 214.9 480 480.05 480zM500 170
c209.85 0 380.05 170.15 380.05 380c0 209.9 -170.2 380 -380.05 380c-209.9 0 -380 -170.15 -380 -380c0 -209.9 170.15 -380 380 -380z" />
    <glyph glyph-name="uniF160" unicode="&#xf160;" 
d="M897.95 821.45c28.5996 19.1494 52.0498 5.09961 52.0498 -31.25v-480.45c0 -36.25 -23.4502 -50.2998 -52.0498 -31.2998l-360.15 247.55s-13.9502 9.9502 -13.9502 23.9502s13.9502 24.0498 13.9502 24.0498zM444.15 821.45
c28.5996 19.1494 52.0498 5.09961 52.0498 -31.25v-480.5c0 -36.25 -23.4502 -50.2998 -52.0498 -31.25l-360.15 247.55s-13.9502 9.9502 -13.9502 23.9502s13.9502 24.0498 13.9502 24.0498z" />
    <glyph glyph-name="uniF161" unicode="&#xf161;" 
d="M462.2 574c0 0 13.9502 -10.0498 13.9502 -24.0498c0 -13.9502 -13.9502 -23.9004 -13.9502 -23.9004l-360.15 -247.55c-28.5996 -19.0498 -52.0498 -5 -52.0498 31.25v480.45c0 36.3496 23.4502 50.3994 52.0498 31.25zM930 549.95
c0 -13.9502 -13.9502 -23.9004 -13.9502 -23.9004l-360.149 -247.55c-28.6006 -19.0498 -52.0508 -5 -52.0508 31.25v480.45c0 36.3496 23.4502 50.3994 52.0508 31.25l360.1 -247.45s14 -10.0498 14 -24.0498z" />
    <glyph glyph-name="uniF162" unicode="&#xf162;" 
d="M747.95 821.45c28.5996 19.1494 52.0498 5.09961 52.0498 -31.25v-480.45c0 -36.25 -23.4502 -50.2998 -52.0498 -31.2998l-360.15 247.55s-13.9502 9.9502 -13.9502 23.9502s13.9502 24.0498 13.9502 24.0498zM300 850c27.6504 0 50 -2.40039 50 -30v-540
c0 -27.5996 -22.3496 -30 -50 -30h-50c-27.6504 0 -50 2.40039 -50 30v540c0 27.5996 22.3496 30 50 30h50z" />
    <glyph glyph-name="uniF163" unicode="&#xf163;" 
d="M612.2 574c0 0 13.9502 -10.0498 13.9502 -24.0498c0 -13.9502 -13.9502 -23.9004 -13.9502 -23.9004l-360.15 -247.55c-28.5996 -19.0498 -52.0498 -5 -52.0498 31.25v480.45c0 36.3496 23.4502 50.3994 52.0498 31.25zM700 850h50c27.6504 0 50 -2.40039 50 -30v-540
c0 -27.5996 -22.3496 -30 -50 -30h-50c-27.6504 0 -50 2.40039 -50 30v540c0 27.5996 22.3496 30 50 30z" />
    <glyph glyph-name="uniF164" unicode="&#xf164;" 
d="M750 900c27.6504 0 50 -2.40039 50 -30v-640c0 -27.5996 -22.3496 -30 -50 -30h-100c-27.6504 0 -50 2.40039 -50 30v640c0 27.5996 22.3496 30 50 30h100zM350 900c27.6504 0 50 -2.40039 50 -30v-640c0 -27.5996 -22.3496 -30 -50 -30h-100
c-27.6504 0 -50 2.40039 -50 30v640c0 27.5996 22.3496 30 50 30h100z" />
    <glyph glyph-name="uniF165" unicode="&#xf165;" 
d="M750 549.95c0 -14.9502 -15.25 -25.7002 -15.25 -25.7002l-428.05 -265.15c-31.2002 -20.4492 -56.7002 -5.2998 -56.7002 33.4502v514.851c0 38.8496 25.5 53.8994 56.75 33.5l428.05 -265.25c-0.0498047 0 15.2002 -10.75 15.2002 -25.7002z" />
    <glyph glyph-name="uniF166" unicode="&#xf166;" 
d="M500 900c193.3 0 350 -156.65 350 -350c0 -193.25 -156.7 -350 -350 -350s-350 156.75 -350 350c0 193.35 156.7 350 350 350z" />
    <glyph glyph-name="uniF167" unicode="&#xf167;" 
d="M800 800.25v-490.4c0 -33.0498 -26.7998 -59.8496 -59.7998 -59.8496h-490.351c-27.5498 0 -49.8496 22.2998 -49.8496 49.8496v490.351c0 33 26.7998 59.7998 59.7998 59.7998h490.4c27.5 0 49.7998 -22.2998 49.7998 -49.75z" />
    <glyph glyph-name="uniF168" unicode="&#xf168;" 
d="M950 359.75c0 -32.8496 -26.9004 -59.75 -59.75 -59.75h-813.6c-44 0 -49.1006 18.5498 -11.4502 41.0996l816.149 452.75c37.75 22.6504 68.6504 5.2002 68.6504 -38.8496v-395.25z" />
    <glyph glyph-name="uniF169" unicode="&#xf169;" 
d="M550 1050c27.6504 0 50 -22.4004 50 -50v-250h-100v200h-300v-500h200v100h100v-100h-99.9502v-100h99.9502v-100h-100v100h-250c-27.6504 0 -50 22.4004 -50 50v600c0 27.6504 22.3496 50 50 50h400zM400 700c0 27.6504 22.3496 50 50 50h50v-100h-100v50zM600 50v100
h100v-100h-100zM600 650v100h100v-100h-100zM400 100v50h100v-100h-50c-27.6504 0 -50 22.4004 -50 50zM850 750c27.6504 0 50 -22.4004 50 -50v-50h-100v100h50zM800 50v100h100v-50c0 -27.5996 -22.3496 -50 -50 -50h-50zM800 450v100h100v-100h-100zM800 250v100h100
v-100h-100z" />
    <glyph glyph-name="uniF16A" unicode="&#xf16a;" 
d="M630 900c193.3 0 350 -156.7 350 -350s-156.7 -350 -350 -350h-310c-165.7 0 -300 134.3 -300 300s134.3 300 300 300c20.3496 0 40.2002 -2.0498 59.4004 -5.9502c63.5996 65.2998 152.3 105.95 250.6 105.95zM320 263.6c30.25 0 59.5498 5.9502 86.9004 16.75
c-20.5508 17 -38.8008 36.5508 -55 57.75c-52.9004 -9.69922 -110.301 5 -149.551 44.2002c-31.4492 31.5 -48.75 73.25 -48.75 117.7s17.3008 86.2002 48.75 117.7c62.9004 62.7998 172.45 62.7998 235.351 0l93.7002 -93.7998c13.5996 -13.6504 35.7998 -13.7002 49.5 0
c13.6494 13.6992 13.6494 35.8496 0 49.5l-93.7002 93.75c-44.7002 44.6494 -104.05 69.25 -167.2 69.25s-122.5 -24.6006 -167.15 -69.25c-44.6494 -44.6504 -69.25 -104.051 -69.25 -167.15s24.6006 -122.5 69.2002 -167.15c44.7002 -44.6494 104.05 -69.25 167.2 -69.25z
M834.45 345.55c54.6494 54.6006 84.75 127.3 84.75 204.5s-30.0498 149.8 -84.7002 204.45c-54.6504 54.5996 -127.25 84.7002 -204.45 84.7002c-68.0498 0 -131.75 -24.5498 -183.5 -67.4502c22.4502 -10.5 43.5 -23.5 62.5498 -38.9502
c35.5508 23.6006 77.25 36.3506 120.9 36.3506c58.5498 0 113.55 -22.8008 154.95 -64.2002c41.3994 -41.4004 64.2002 -96.4502 64.2002 -154.95s-22.8008 -113.55 -64.2002 -154.95c-41.4004 -41.3994 -96.4004 -64.2002 -154.95 -64.2002s-113.6 22.8008 -155 64.2002
l-135.45 135.45c-13.6494 13.6504 -35.8496 13.6504 -49.5 0c-13.6494 -13.6504 -13.6494 -35.8496 0 -49.5l135.45 -135.45c54.6504 -54.5996 127.25 -84.7002 204.5 -84.7002c77.2002 0 149.8 30.1006 204.45 84.7002z" />
    <glyph glyph-name="uniF16B" unicode="&#xf16b;" 
d="M629.16 668.842v-196.346h-54.7705v-232.496h-148.796v232.496h-54.7627v196.346c0 17.124 13.8789 30.9951 30.9951 30.9951h196.338c17.0957 0 30.9961 -13.8711 30.9961 -30.9951zM432.83 792.839c0 37.0928 30.0693 67.1621 67.1621 67.1621
c37.0918 0 67.1621 -30.0693 67.1621 -67.1621s-30.0703 -67.1621 -67.1621 -67.1621c-37.0928 0 -67.1621 30.0693 -67.1621 67.1621zM499.391 1029.99c134.559 0 248.304 -46.3906 341.231 -139.187c92.9131 -92.7969 139.378 -206.395 139.378 -340.806
s-45.6738 -246.822 -136.977 -337.202c-96.9268 -95.2129 -211.476 -142.79 -343.633 -142.79c-130.565 0 -243.116 47.1963 -337.619 141.59c-94.5312 94.3926 -141.771 207.213 -141.771 338.402c0 131.204 47.2402 244.801 141.771 340.806
c92.1016 92.7959 204.651 139.187 337.619 139.187zM500.593 943.612c-108.946 0 -201.047 -38.3936 -276.346 -115.209c-78.5 -79.2021 -117.749 -171.999 -117.749 -278.403c0 -106.405 38.8457 -198.396 116.54 -276.002
c77.6943 -77.6055 170.206 -116.395 277.555 -116.395c107.327 0 200.637 39.1982 279.941 117.597c75.3066 72.8008 112.938 164.41 112.938 274.8c0 109.612 -38.4375 202.408 -115.326 278.403c-76.1113 76.8154 -168.615 115.209 -277.554 115.209z" />
    <glyph glyph-name="uniF16C" unicode="&#xf16c;" 
d="M499.381 1030c134.567 0 248.312 -46.377 341.24 -139.188c92.9141 -92.7812 139.379 -206.396 139.379 -340.808c0 -134.384 -45.6748 -246.795 -136.978 -337.205c-96.9277 -95.1846 -211.478 -142.791 -343.642 -142.791c-130.553 0 -243.104 47.1973 -337.608 141.62
c-94.5322 94.3643 -141.772 207.186 -141.772 338.376c0 131.221 47.2402 244.803 141.772 340.808c92.1025 92.8115 204.653 139.188 337.608 139.188zM500.589 943.63c-108.939 0 -201.041 -38.4082 -276.34 -115.223
c-78.501 -79.1895 -117.751 -171.973 -117.751 -278.407c0 -106.376 38.8467 -198.367 116.542 -275.974c77.6943 -77.6084 170.206 -116.396 277.549 -116.396c107.328 0 200.639 39.1689 279.944 117.567c75.3066 72.8027 112.938 164.412 112.938 274.803
c0 109.628 -38.4375 202.41 -115.326 278.407c-76.1133 76.8145 -168.617 115.223 -277.557 115.223zM681.35 663.759v-82.6465h-348.908v82.6465h348.908zM681.35 509.513v-82.6465h-348.908v82.6465h348.908z" />
    <glyph glyph-name="uniF16D" unicode="&#xf16d;" 
d="M840.604 890.811c92.9297 -92.7842 139.396 -206.397 139.396 -340.811c0 -134.385 -45.6748 -246.798 -136.994 -337.207c-96.9131 -95.1855 -211.464 -142.793 -343.622 -142.793c-130.575 0 -243.105 47.1973 -337.617 141.621
c-94.541 94.3652 -141.767 207.188 -141.767 338.379c0 131.22 47.2256 244.805 141.767 340.811c92.1104 92.8125 204.639 139.189 337.617 139.189c134.56 0 248.292 -46.377 341.221 -139.189zM780.517 275.195c26.6611 25.7803 48.4854 53.9355 65.6836 84.4033
l-248.232 109.878h-174.697c5.60938 -24.1104 14.4434 -42.5967 26.499 -56.25c25.7236 -28.9453 63.4727 -40.9854 103.668 -40.9854c36.9717 0 74.7061 12.04 91.5811 20.8887l19.3066 -89.1797c-27.333 -15.2939 -73.916 -30.5576 -125.361 -30.5576
c-78.75 0 -151.069 32.1387 -196.069 91.6123c-21.6943 27.333 -37.7646 61.875 -45 104.472h-52.2363v57.041h44.21v13.6826c0 8.02637 0.805664 16.0547 0.805664 24.1113h-45.0156v57.04h9.16992l-127.192 56.2939
c-14.0479 -40.1074 -21.1523 -82.6455 -21.1523 -127.646c0 -106.377 38.8477 -198.369 116.543 -275.978c77.6953 -77.6074 170.216 -116.396 277.559 -116.396c107.314 0 200.625 39.1699 279.932 117.568zM468.329 526.518l-1.05469 0.806641l1.81641 -0.806641
h-0.761719zM617.772 564.312l263.496 -116.616c8.08691 32.1094 12.1875 66.1816 12.1875 102.305c0 109.629 -38.4375 202.411 -115.312 278.407c-76.1133 76.8164 -168.633 115.226 -277.559 115.226c-108.956 0 -201.034 -38.4092 -276.357 -115.226
c-20.8301 -21.0059 -38.8184 -43.0361 -54.1104 -65.9756l157.851 -69.8584c7.99805 13.9443 16.8164 27.1279 26.9824 38.877c45.8047 51.416 110.099 81.9424 185.625 81.9424c49.0137 0 91.582 -11.25 120.527 -24.0811l-22.5 -91.6113
c-20.8887 8.84766 -53.8184 19.2764 -89.1787 19.2764c-38.585 0 -73.9307 -12.832 -98.8486 -43.417c-6.5625 -7.48535 -12.1875 -17.0508 -16.9492 -27.7441l55.2695 -24.4639h136.055v-57.04h-7.17773z" />
    <glyph glyph-name="uniF16E" unicode="&#xf16e;" 
d="M499.384 1030c134.56 0 248.32 -46.3916 341.25 -139.189c92.9004 -92.8125 139.366 -206.41 139.366 -340.811s-45.6748 -246.812 -136.964 -337.207c-96.9434 -95.2012 -211.494 -142.793 -343.652 -142.793c-130.547 0 -243.105 47.1826 -337.617 141.591
c-94.5254 94.3955 -141.767 207.218 -141.767 338.409s47.2412 244.805 141.767 340.811c92.1104 92.7979 204.669 139.189 337.617 139.189zM127.988 678.936c-14.3271 -40.5029 -21.4893 -83.4814 -21.4893 -128.936c0 -106.407 38.8467 -198.399 116.542 -275.991
c77.7109 -77.6064 170.201 -116.412 277.544 -116.412c107.345 0 200.655 39.1846 279.961 117.599c26.543 25.6641 48.3975 53.6436 65.5674 83.9795l-180.938 80.5811c-12.2764 -60.8789 -66.5342 -102.012 -132.13 -106.847v-73.9883h-55.0928v73.9883
c-53.877 0.617188 -105.923 22.6328 -145.707 57.4814l66.123 66.665c31.8301 -29.9697 63.6611 -43.4326 107.138 -43.4326c28.1543 0 59.3848 11.0156 59.3848 47.7109c0 13.0059 -5.03906 22.0449 -12.9785 28.8418l-45.7471 20.376l-56.9971 25.3711
c-28.1826 12.5527 -52.0605 23.1885 -76.0254 33.8379zM500.585 943.618c-108.926 0 -201.034 -38.4072 -276.328 -115.225c-20.5068 -20.6699 -38.3193 -42.2754 -53.4668 -64.8193l183.486 -81.6943c16.582 50.8887 64.9512 81.7529 123.677 85.209v73.9902h55.0928
v-73.9902c37.9688 -1.83008 79.5996 -12.2305 120.615 -44.0322l-63.0459 -64.8193c-23.2627 16.5088 -52.6475 28.1396 -82.0605 28.1396c-23.8643 0 -57.54 -7.35254 -57.54 -37.3096c0 -4.57031 1.52344 -8.59961 4.30664 -12.1875l61.377 -27.3193l41.5439 -18.5156
c26.5723 -11.8223 51.9434 -23.1152 77.0791 -34.3066l245.947 -109.513c8.14453 32.2275 12.2168 66.4893 12.2168 102.774c0 109.614 -38.4365 202.411 -115.342 278.394c-76.1133 76.8174 -168.604 115.225 -277.559 115.225z" />
    <glyph glyph-name="uniF16F" unicode="&#xf16f;" 
d="M499.373 1030c134.567 0 248.312 -46.3916 341.24 -139.188c92.9131 -92.7969 139.379 -206.396 139.379 -340.808c0 -134.399 -45.6748 -246.81 -136.978 -337.205c-96.9277 -95.1992 -211.478 -142.791 -343.642 -142.791
c-130.553 0 -243.104 47.1973 -337.608 141.604c-94.5322 94.3945 -141.772 207.201 -141.772 338.392c0 131.205 47.2402 244.803 141.772 340.808c92.1025 92.7969 204.652 139.188 337.608 139.188zM500.58 943.615c-108.939 0 -201.04 -38.3936 -276.34 -115.21
c-78.5 -79.2021 -117.75 -172.001 -117.75 -278.405c0 -106.392 38.8467 -198.397 116.541 -275.989c77.6953 -77.6064 170.207 -116.411 277.549 -116.411c107.329 0 200.639 39.1992 279.944 117.598c75.3076 72.8027 112.939 164.412 112.939 274.803
c0 109.613 -38.4375 202.41 -115.327 278.405c-76.1123 76.8164 -168.616 115.21 -277.557 115.21zM340.98 636.074v-81.2266h55.8906c30.1826 0 40.9863 19.7461 40.9863 40.2402c0 26.4541 -12.6631 40.9863 -42.8477 40.9863h-54.0293zM274.652 419.952v265.311h131.535
c71.542 0 97.9971 -37.2656 97.9971 -89.8086c0 -35.3906 -19.7451 -89.7949 -110.669 -89.7949h-51.7881v-85.707h-67.0752zM522.246 419.952v265.311h102.846c80.8584 0 135.248 -38.3789 135.248 -132.655s-54.3896 -132.655 -135.248 -132.655h-102.846zM588.56 629.364
v-153.515h38.0264c49.5547 0 67.4404 33.9121 67.4404 76.7578c0 42.8467 -17.8857 76.7568 -67.8223 76.7568h-37.6445z" />
    <glyph glyph-name="uniF170" unicode="&#xf170;" 
d="M499.369 1029.99c134.571 0 248.343 -46.375 341.27 -139.185c92.8984 -92.7803 139.361 -206.392 139.361 -340.801c0 -134.381 -45.6719 -246.789 -136.959 -337.197c-96.9395 -95.1826 -211.502 -142.788 -343.672 -142.788
c-130.543 0 -243.098 47.1953 -337.607 141.616c-94.5088 94.3926 -141.762 207.182 -141.762 338.369c0 131.216 47.2529 244.797 141.762 340.801c92.1084 92.8096 204.663 139.185 337.607 139.185zM500.571 943.621c-108.923 0 -201.029 -38.4072 -276.321 -115.222
c-78.5117 -79.1855 -117.74 -171.995 -117.74 -278.399c0 -106.374 38.8477 -198.394 116.541 -275.968c77.6924 -77.6064 170.18 -116.424 277.521 -116.424c107.354 0 200.677 39.1982 279.981 117.595c75.291 72.8008 112.936 164.409 112.936 274.797
c0 109.626 -38.4365 202.405 -115.337 278.399c-76.1113 76.8145 -168.613 115.222 -277.58 115.222zM813.92 541.504l9.375 -3.75v-135.933l-8.90527 -3.75l-116.246 -49.6865l-5.625 -2.34375l-5.625 2.34375l-251.258 103.59l-8.37793 3.34082l-124.024 -51.3271
l-123.365 52.8799v123.365l115.426 48.0459l-1.37695 0.584961v136.14l130.865 57.4785l293.574 -122.223v-119.03zM677.519 384.39v84.46l-1.1709 0.498047v2.8125l-220.072 89.9385v-86.7734l220.072 -91.1992v0.731445zM692.343 495.245l77.0186 32.2852
l-71.6572 29.7939l-75.1299 -32.1963zM793.296 421.976v83.1729l-85.7783 -36.0938v-84.0195z" />
    <glyph glyph-name="uniF171" unicode="&#xf171;" 
d="M499.369 1029.99c134.571 0 248.343 -46.375 341.27 -139.186c92.8984 -92.7812 139.361 -206.391 139.361 -340.8c0 -134.396 -45.6719 -246.805 -136.959 -337.213c-96.9395 -95.1826 -211.502 -142.788 -343.672 -142.788
c-130.543 0 -243.098 47.1963 -337.607 141.616c-94.5088 94.3926 -141.762 207.182 -141.762 338.385c0 131.216 47.2529 244.797 141.762 340.8c92.1084 92.8105 204.663 139.186 337.607 139.186zM500.571 943.629c-108.923 0 -201.029 -38.4082 -276.321 -115.222
c-78.5117 -79.1875 -117.74 -171.997 -117.74 -278.399c0 -106.39 38.8477 -198.408 116.541 -275.983c77.6924 -77.6055 170.18 -116.424 277.521 -116.424c107.354 0 200.677 39.1992 279.981 117.596c75.291 72.7998 112.936 164.408 112.936 274.812
c0 109.625 -38.4365 202.405 -115.337 278.399c-76.1113 76.8135 -168.613 115.222 -277.58 115.222zM696.591 687.521c14.502 0 26.249 -11.7607 26.249 -26.249v-353.44c0 -14.502 -11.7471 -26.249 -26.249 -26.249h-262.024c-14.501 0 -26.249 11.748 -26.249 26.249
v104.527h-104.997c-14.501 0 -26.249 11.748 -26.249 26.249v353.442c-0.0585938 13.623 10.3125 25.0195 23.9062 26.249c0.761719 0.0283203 1.55273 0.0283203 2.34277 0h262.01c14.501 0 26.249 -11.7627 26.249 -26.249v-104.529h105.012zM329.569 464.873h78.748
v196.399c-0.0869141 13.4619 10.0479 24.8008 23.4365 26.249c0.9375 0.0458984 1.875 0.0458984 2.8125 0h104.529v78.2803h-209.526v-300.929zM670.342 635.023h-209.526v-300.942h209.526v300.942z" />
    <glyph glyph-name="uniF172" unicode="&#xf172;" 
d="M499.381 1030c134.567 0 248.312 -46.4053 341.24 -139.188c92.9141 -92.8115 139.379 -206.408 139.379 -340.808s-45.6748 -246.81 -136.978 -337.205c-96.9277 -95.1982 -211.478 -142.791 -343.642 -142.791c-130.553 0 -243.104 47.1816 -337.608 141.591
c-94.5322 94.3936 -141.772 207.215 -141.772 338.405s47.2402 244.803 141.772 340.808c92.1025 92.7832 204.653 139.188 337.608 139.188zM500.589 943.615c-108.939 0 -201.041 -38.4072 -276.34 -115.21c-78.501 -79.2021 -117.751 -171.999 -117.751 -278.405
c0 -106.404 38.8467 -198.397 116.542 -276.004c77.7021 -77.5918 170.206 -116.396 277.549 -116.396c107.328 0 200.639 39.1865 279.944 117.583c75.3066 72.8174 112.938 164.427 112.938 274.817c0 109.613 -38.4375 202.41 -115.326 278.405
c-76.1133 76.8027 -168.617 115.21 -277.557 115.21zM286.629 617.748c19.1523 120.762 104.156 185.331 210.7 185.331c153.245 0 246.627 -111.21 246.627 -259.466c0 -144.682 -99.374 -257.079 -249.021 -257.079c-102.956 0 -195.139 63.3701 -211.903 187.72h120.923
c3.58789 -64.5703 45.4902 -87.2891 105.351 -87.2891c68.2314 0 112.542 63.3818 112.542 160.237c0 101.631 -38.3203 155.434 -110.154 155.434c-52.6689 0 -98.1592 -19.1309 -107.738 -84.8877l35.1475 0.19043l-95.1768 -95.1689l-95.1777 95.1689z" />
    <glyph glyph-name="uniF173" unicode="&#xf173;" 
d="M382.568 468.601c26.8037 0 45.7031 13.1865 56.6406 39.4561l56.7383 -28.7109c-12.1094 -22.4609 -28.8086 -40.1338 -50.1436 -53.0303c-21.3408 -12.79 -44.876 -19.2354 -70.6572 -19.2354c-41.0127 0 -74.2188 12.5 -99.4141 37.6953
c-25.1436 25.1953 -37.7959 60.2539 -37.7959 105.176c0 43.8506 12.7959 78.6133 38.2871 104.395c25.3877 25.6836 57.5625 38.5742 96.4785 38.5742c56.9365 0 97.7568 -22.168 122.366 -66.5039l-61.6211 -32.0312c-6.5459 13.6719 -14.6484 23.2422 -24.2188 28.7109
s-18.457 8.20605 -26.6602 8.20605c-41.1162 0 -61.6211 -27.1514 -61.6211 -81.3506c0 -24.6094 5.17578 -44.3359 15.625 -59.0791c10.3516 -14.8467 25.6865 -22.2715 45.9961 -22.2715zM647.897 468.601c26.7607 0 45.7061 13.1865 56.6436 39.4561l57.5225 -28.7109
c-12.6006 -22.4609 -29.5898 -40.1338 -50.9795 -53.0303c-21.292 -12.79 -44.6318 -19.2354 -69.7754 -19.2354c-41.6504 0 -74.9023 12.5 -99.8047 37.6953c-24.9512 25.1953 -37.3564 60.2539 -37.3564 105.176c0 43.8506 12.7012 78.6133 38.1865 104.395
c25.4395 25.6836 57.6172 38.5742 96.4844 38.5742c56.9336 0 97.458 -22.168 121.579 -66.5039l-60.7393 -32.0312c-6.64062 13.6719 -14.6943 23.2422 -24.3164 28.7109c-9.57031 5.46875 -18.75 8.20605 -27.4443 8.20605
c-41.1104 0 -61.6211 -27.1514 -61.6211 -81.3506c0 -24.6094 5.17578 -44.3359 15.625 -59.0791c10.3574 -14.8467 25.6865 -22.2715 45.9961 -22.2715zM840.641 890.808c92.8984 -92.7793 139.358 -206.39 139.358 -340.799
c0 -134.396 -45.6699 -246.805 -136.957 -337.213c-96.9395 -95.1846 -211.502 -142.788 -343.674 -142.788c-130.542 0 -243.097 47.1953 -337.606 141.616c-94.5098 94.3906 -141.761 207.181 -141.761 338.385c0 131.217 47.251 244.797 141.761 340.799
c92.1084 92.8105 204.663 139.185 337.606 139.185c134.573 0 248.343 -46.374 341.272 -139.185zM780.551 275.198c75.293 72.7998 112.937 164.407 112.937 274.811c0 109.626 -38.4336 202.405 -115.335 278.4c-76.1104 76.8125 -168.615 115.222 -277.582 115.222
c-108.923 0 -201.028 -38.4092 -276.321 -115.222c-78.5127 -79.1875 -117.739 -171.997 -117.739 -278.4c0 -106.39 38.8486 -198.41 116.54 -275.982c77.6943 -77.6064 170.182 -116.425 277.521 -116.425c107.355 0 200.678 39.1973 279.98 117.597z" />
    <glyph glyph-name="uniF174" unicode="&#xf174;" 
d="M900 900c55 0 100 -45 100 -100v-500c0 -55 -45 -100 -100 -100h-800c-55.0498 0 -100 45 -100 100v500c0 55 44.9502 100 100 100h800zM900 300v300h-800v-300h800zM900 750v50h-800v-50h800zM200 495h30v-30h-30v30zM380 435.05h29.9502v30h30.0498v30h60v-30h-30v-30
h-30v-30.0498h-60v30.0498zM500 405h-30.0498v30.0498h30.0498v-30.0498zM350 405h-60v30.0498h60v-30.0498zM380 465.05v-29.9502h-30v59.9502h60v-30h-30zM259.95 435.05v-30.0498h-59.9502v30.0498h30v30h30v30h60v-30h-30v-30h-30.0498z" />
    <glyph glyph-name="uniF175" unicode="&#xf175;" 
d="M550 212.25v-112.25h-100v107.15c-85.5996 5 -153.3 29.4492 -212.05 89.8496l85.8994 87c42.9502 -43.5 101.15 -58 164.101 -58c78.25 0 120.25 29.9502 120.25 85.0996c0 24.1504 -6.65039 44.4502 -21 58c-13.3506 12.5508 -28.6006 19.3506 -60.1006 24.1504
l-82.0996 11.5996c-58.2002 8.7002 -101.1 27.0508 -131.7 57.0508c-32.3994 32.8496 -48.6494 77.2998 -48.6494 135.35c0 107.75 69.0996 187.15 185.35 205v97.75h100v-96.5996c69.0996 -7.25 123.25 -31 170.75 -77.5508l-83.9502 -84.0996
c-42.9502 41.5996 -94.4502 47.3496 -139.35 47.3496c-70.6006 0 -104.95 -39.5996 -104.95 -87c0 -17.3994 5.75 -35.7998 20.0498 -49.2998c13.3506 -12.5996 35.2998 -23.2002 63 -27.0498l80.1006 -11.5996c62.0498 -8.7002 101.149 -26.1006 129.8 -53.1504
c36.2998 -34.7998 52.5 -85.0996 52.5 -146c0 -112.5 -78.3506 -183.1 -187.95 -202.75z" />
    <glyph glyph-name="uniF176" unicode="&#xf176;" 
d="M300 350h650v-100h-150v-150h-100v150h-400c-55.0537 0 -100 45.0195 -100 100v400h-150v100h150v150h100v-650zM700 400v350h-350v100h350c55.0537 0 100 -45.0195 100 -100v-350h-100z" />
    <glyph glyph-name="uniF177" unicode="&#xf177;" 
d="M717.4 307.55c-23.4502 -23.4502 -61.4502 -23.4502 -84.8506 0l-132.55 151.5l-132.55 -151.45c-23.4502 -23.4492 -61.4502 -23.4492 -84.8506 0c-23.4492 23.4502 -23.4492 61.4502 0 84.8506l137.9 157.5l-137.95 157.6c-23.4502 23.4502 -23.4502 61.4004 0 84.8506
c23.4502 23.4492 61.4004 23.4492 84.8506 0l132.6 -151.551l132.55 151.551c23.4502 23.4492 61.4004 23.4492 84.8506 0c23.4492 -23.4502 23.4492 -61.4502 0 -84.8506l-137.9 -157.6l137.9 -157.5c23.4492 -23.4502 23.4492 -61.4502 0 -84.9004z" />
    <glyph glyph-name="uniF178" unicode="&#xf178;" 
d="M500 1000c213.95 0 346.9 -70.5 339.65 -127.7l-72.1006 -673.35c-2.7998 -23.0498 -111 -98.8506 -267.55 -98.9502c-156.6 0.0996094 -264.75 75.9004 -267.65 98.9004l-72.0996 673.35c-7.25 57.25 125.8 127.75 339.75 127.75zM500 785.45
c156.55 0.0996094 267.55 55.8496 267.55 76.75c0.150391 20.7002 -111 76.5498 -267.55 76.4502c-156.55 0.0996094 -267.7 -55.75 -267.65 -76.4502c0 -20.9004 111.051 -76.6504 267.65 -76.75z" />
    <glyph glyph-name="uniF179" unicode="&#xf179;" 
d="M965.75 550l-179.7 -194.7l-174.7 194.7h133.601v10.25c-5.35059 165.1 -140.4 297.25 -306.25 297.25c-169.3 0 -306.55 -137.7 -306.55 -307.5s137.25 -307.5 306.55 -307.5c67.8496 0 130.55 22.25 181.35 59.6504l70.2998 -75.2002
c-69.3994 -54.4004 -156.75 -86.9004 -251.649 -86.9004c-225.75 0 -408.7 183.5 -408.7 409.95s182.95 410.05 408.7 410.05c222.25 0 403.05 -178.1 408.45 -399.8v-10.25h118.6z" />
    <glyph glyph-name="uniF17A" unicode="&#xf17a;" 
d="M275.8 338.8l115.351 116.15l0.75 -291.7l-275.5 15.0498l87.0498 87.6006c-153.2 162.1 -151.3 418.05 6.14941 576.55c67.25 67.75 152.101 106.899 239.851 117.55l3.4502 -103.85c-62.5 -9.4502 -122.601 -38.3506 -170.7 -86.8008
c-117.5 -118.35 -119.5 -308.949 -6.40039 -430.55zM608.15 936.75l275.5 -15l-87.0508 -87.7002c153.2 -162 151.301 -417.95 -6.09961 -576.55c-67.2998 -67.7002 -152.15 -106.85 -239.9 -117.5l-3.44922 103.8c62.5 9.4502 122.649 38.3506 170.699 86.7998
c117.5 118.25 119.5 308.851 6.40039 430.551l-115.35 -116.101z" />
    <glyph glyph-name="uniF17B" unicode="&#xf17b;" 
d="M836.3 417.95c8.90039 14.5 13.7002 6.75 13.7002 -0.400391v-100.1c0 -96.9502 -156.7 -197.45 -350 -197.45s-350 100.5 -350 197.5v100.1c0 7.10059 4.75 14.8506 13.6504 0.350586c42.1992 -68.1504 176.8 -118.05 336.35 -118.05s294.15 49.8994 336.3 118.05z
M836.85 673.75c8.55078 12.4004 13.1504 5.65039 13.1504 0.0996094v-117.85c0 -88.0498 -156.7 -159.45 -350 -159.45s-350 71.3506 -350 159.45v117.85c0 5.55078 4.5498 12.3008 13.0996 -0.0996094c41.5 -60.25 176.65 -104.5 336.9 -104.5s295.35 44.25 336.85 104.5z
M500 1000c193.3 0 350 -59 350 -131.65v-63c0 -77.0498 -156.7 -139.55 -350 -139.55s-350 62.5 -350 139.55v63c0 72.6504 156.7 131.65 350 131.65z" />
    <glyph glyph-name="uniF17C" unicode="&#xf17c;" 
d="M300 1050c27.5996 0 50 -22.4004 50 -50v-100c0 -27.5996 -22.4004 -50 -50 -50h-100c-27.5996 0 -50 22.4004 -50 50v100c0 27.5996 22.4004 50 50 50h100zM550 1050c27.5996 0 50 -22.4004 50 -50v-100c0 -27.5996 -22.4004 -50 -50 -50h-100
c-27.5996 0 -50 22.4004 -50 50v100c0 27.5996 22.4004 50 50 50h100zM800 1050c27.5996 0 50 -22.4004 50 -50v-100c0 -27.5996 -22.4004 -50 -50 -50h-100c-27.5996 0 -50 22.4004 -50 50v100c0 27.5996 22.4004 50 50 50h100zM300 800c27.5996 0 50 -22.4004 50 -50v-100
c0 -27.5996 -22.4004 -50 -50 -50h-100c-27.5996 0 -50 22.4004 -50 50v100c0 27.5996 22.4004 50 50 50h100zM550 800c27.5996 0 50 -22.4004 50 -50v-100c0 -27.5996 -22.4004 -50 -50 -50h-100c-27.5996 0 -50 22.4004 -50 50v100c0 27.5996 22.4004 50 50 50h100z
M800 800c27.5996 0 50 -22.4004 50 -50v-100c0 -27.5996 -22.4004 -50 -50 -50h-100c-27.5996 0 -50 22.4004 -50 50v100c0 27.5996 22.4004 50 50 50h100zM300 550c27.5996 0 50 -22.4004 50 -50v-100c0 -27.5996 -22.4004 -50 -50 -50h-100c-27.5996 0 -50 22.4004 -50 50
v100c0 27.5996 22.4004 50 50 50h100zM550 550c27.5996 0 50 -22.4004 50 -50v-100c0 -27.5996 -22.4004 -50 -50 -50h-100c-27.5996 0 -50 22.4004 -50 50v100c0 27.5996 22.4004 50 50 50h100zM550 250c27.5996 0 50 -22.4004 50 -50v-100
c0 -27.5996 -22.4004 -50 -50 -50h-100c-27.5996 0 -50 22.4004 -50 50v100c0 27.5996 22.4004 50 50 50h100zM800 550c27.5996 0 50 -22.4004 50 -50v-100c0 -27.5996 -22.4004 -50 -50 -50h-100c-27.5996 0 -50 22.4004 -50 50v100c0 27.5996 22.4004 50 50 50h100z" />
    <glyph glyph-name="uniF17D" unicode="&#xf17d;" 
d="M903 952.95c29.25 -29.2998 1.59961 -57.2002 -44 -152.101c-121.9 -253.649 -369.8 -695.8 -369.8 -695.8l-54.25 379.95l-379.95 54.2002s442.2 247.85 695.95 369.8c94.8496 45.5996 122.75 73.25 152.05 43.9502zM811.8 855.2l-304 -279.601l28.0498 -232.75z" />
    <glyph glyph-name="uniF17E" unicode="&#xf17e;" 
d="M950 900c27.6504 0 50 -22.3496 50 -50v-600c0 -27.6504 -22.4004 -50 -50 -50h-900c-27.5996 0 -50 22.3496 -50 50v600c0 27.6504 22.4004 50 50 50h900zM900 300v500h-800v-500h800z" />
    <glyph glyph-name="uniF17F" unicode="&#xf17f;" 
d="M800 1000c27.6504 0 50 -22.4004 50 -50v-800c0 -27.5996 -22.3496 -50 -50 -50h-600c-27.6504 0 -50 22.4004 -50 50v800c0 27.6504 22.3496 50 50 50h600zM750 200v700h-500v-700h500z" />
    <glyph glyph-name="uniF180" unicode="&#xf180;" 
d="M969.9 679.25c21.3994 -5.65039 34.2998 -26.8496 28.8994 -47.1504l-148.5 -554.199c-5.5 -20.4004 -27.2002 -32.2002 -48.5996 -26.4502l-405.5 108.7c-21.4004 5.64941 -34.2998 26.8496 -28.8506 47.1494l24.6006 91.9004l-180.65 -48.3506
c-21.3496 -5.7998 -43.0996 6.05078 -48.5498 26.3506l-161.5 602.55c-5.4502 20.2998 7.4502 41.5 28.8496 47.2002l453.801 121.6c21.3994 5.65039 43.1992 -6.14941 48.6494 -26.4502l65.1504 -243.05zM81.6504 868.45l144.899 -540.9l391.5 104.8l-144.899 540.9z
M783.9 126.85l132 492.551l-297.351 81.5498l75.4004 -281.351c5.5 -20.2998 -7.5 -41.5 -28.9004 -47.1494l-195.05 -52.3506l-26.7998 -100.1z" />
    <glyph glyph-name="uniF181" unicode="&#xf181;" 
d="M390 550c0 60.75 49.2998 109.95 110.05 109.95s109.95 -49.2002 109.95 -109.95c0 -60.7002 -49.2002 -110 -109.95 -110s-110.05 49.25 -110.05 110z" />
    <glyph glyph-name="uniF182" unicode="&#xf182;" 
d="M500.05 660c60.75 0 109.95 -49.25 109.95 -110s-49.2002 -110 -109.95 -110s-110.05 49.25 -110.05 110s49.2998 110 110.05 110zM150.05 660c60.75 0 109.95 -49.2998 109.95 -110s-49.2002 -110 -109.95 -110s-110.05 49.25 -110.05 110s49.2998 110 110.05 110z
M850.05 660c60.75 0 109.95 -49.25 109.95 -110s-49.2002 -110 -109.95 -110s-110.05 49.25 -110.05 110s49.2998 110 110.05 110z" />
    <glyph glyph-name="uniF183" unicode="&#xf183;" 
d="M500.05 660c60.75 0 109.95 -49.25 109.95 -110s-49.2002 -110 -109.95 -110s-110.05 49.25 -110.05 110s49.2998 110 110.05 110zM500.05 790c-60.75 0 -110.05 49.25 -110.05 110s49.2998 110 110.05 110s109.95 -49.2998 109.95 -110s-49.2002 -110 -109.95 -110z
M500.05 310c60.75 0 109.95 -49.25 109.95 -110s-49.2002 -110 -109.95 -110s-110.05 49.25 -110.05 110s49.2998 110 110.05 110z" />
    <glyph glyph-name="uniF184" unicode="&#xf184;" 
d="M700.05 660c60.75 0 109.95 -49.25 109.95 -110s-49.2002 -110 -109.95 -110s-110.05 49.25 -110.05 110s49.2998 110 110.05 110zM300.05 660c60.75 0 109.95 -49.2998 109.95 -110s-49.2002 -110 -109.95 -110s-110.05 49.25 -110.05 110s49.2998 110 110.05 110z" />
    <glyph glyph-name="uniF185" unicode="&#xf185;" 
d="M500.05 640c-60.75 0 -110.05 49.25 -110.05 110s49.2998 110 110.05 110s109.95 -49.2998 109.95 -110s-49.2002 -110 -109.95 -110zM500.05 460c60.75 0 109.95 -49.25 109.95 -110s-49.2002 -110 -109.95 -110s-110.05 49.25 -110.05 110s49.2998 110 110.05 110z" />
    <glyph glyph-name="uniF186" unicode="&#xf186;" 
d="M750 700l-250 -250l-250 250h150v300h200v-300h150zM966.9 373.4c24.5 -26.0508 37.8994 -46.8008 31.5996 -72.4502l-28.0498 -153.7c-6.40039 -25.7002 -34.5498 -46.7998 -62.6006 -46.7998h-815.6c-28.0498 0 -56.2002 21.0996 -62.5996 46.7998l-28.0508 153.7
c-6.39941 25.6494 7.05078 46.3994 31.5 72.4502c10.5 11.1494 80.5508 86.0996 100.551 105.699c13.2998 12.9502 32.25 20.9004 52.0996 20.9004h87.7998l-153.149 -149.7h177.199c5.05078 0 9.7002 -2.59961 12 -6.64941l40.8008 -93.6504h299.199l40.8008 93.6504
c2.2998 4.0498 6.89941 6.64941 12 6.64941h177.199l-153.199 149.7h87.8496c19.9004 0 38.8496 -7.9502 52.0996 -20.9004c20 -19.5498 90.0508 -94.5 100.551 -105.699z" />
    <glyph glyph-name="uniF187" unicode="&#xf187;" 
d="M513 550.9c-96.2002 -31.1504 -150.8 -112.601 -161.1 -129.2c-30.9004 35.6494 -47.9004 81.0498 -47.9004 128.3c0 1.25 0 2.5498 0.150391 3.7998c16.0498 -0.25 106.05 0 200.05 27.8506c5.2002 -10.3506 9.7998 -19.9502 13.9502 -29.2002
c-1.75 -0.5 -3.5 -0.950195 -5.15039 -1.5498zM381.15 394.35c6.34961 12.4004 46.3994 83 152.449 120.5c26.3506 -69.0498 37.8008 -127.05 41.1006 -146.1c-23.75 -9.75 -48.8506 -14.75 -74.7002 -14.75c-43.25 0 -84.4004 13.9502 -118.85 40.3496zM627.75 698.65
c-6.0498 -8.30078 -35.0498 -43.8506 -99.2002 -68.5c-29.4502 53.8496 -60.7998 97.3994 -71.0498 111.149c14.0498 3.15039 28.2998 4.7002 42.5 4.7002c46.9004 0 92.2002 -16.7998 127.75 -47.3496zM485.25 616.8c-83.0996 -21.7002 -155.25 -23.3496 -175.55 -23.3496
h-0.850586c13.0508 57.5996 52.3008 107.05 105.65 132.899c8.7002 -11.7998 40.3496 -55.9492 70.75 -109.55zM575.7 525.2c12.2002 1.75 24.9502 2.64941 37.8496 2.64941c39.5 0 70.9004 -8.39941 79.6006 -11.0498c-8.75 -51.0996 -37.8506 -97.1494 -80.4502 -127.149
c-3.0498 17.1992 -13.75 70.8994 -37 135.55zM500 1030c265.1 0 480 -214.9 480 -480s-214.9 -480 -480 -480s-480 214.9 -480 480s214.9 480 480 480zM500 315.15c129.55 0 234.9 105.35 234.9 234.85c0 129.55 -105.351 234.95 -234.9 234.95
c-129.6 0 -234.95 -105.351 -234.95 -234.95c0 -129.5 105.351 -234.85 234.95 -234.85zM546.1 596.3c66.3008 27.6504 99.2002 65.5 107.2 75.7998c26.4502 -33.1992 41.5 -74.5 42.6006 -117c-11.9004 2.35059 -47.3506 8.60059 -90.0508 8.60059
c-15.4492 0 -30.25 -0.799805 -44.0996 -2.4502c-1.15039 2.84961 -2.40039 5.65039 -3.5498 8.5c-3.7002 8.7002 -7.75 17.5498 -12.1006 26.5498z" />
    <glyph glyph-name="uniF188" unicode="&#xf188;" 
d="M478.25 678.95c-67.9004 120.7 -140.55 219.149 -145.85 226.399c-109.551 -51.7998 -191.301 -152.75 -216.851 -274.35c10.2998 -0.200195 174.101 -2.15039 362.7 47.9502zM527.15 546.95c5.09961 1.64941 10.2998 3.2002 15.4492 4.7002
c-9.84961 22.3496 -20.5996 44.75 -31.8496 66.7998c-202.3 -60.6006 -396.4 -56.2002 -403.25 -56c-0.150391 -4.2002 -0.349609 -8.2998 -0.349609 -12.5c0 -100.95 38.1494 -193.05 100.8 -262.601l-0.25 0.300781s107.5 190.699 319.45 259.3zM258.55 240.3v0.200195
c-2.89941 2.25 -6 4.2998 -8.89941 6.75c5.2998 -4.25 8.89941 -6.9502 8.89941 -6.9502zM405.9 931.4c-0.350586 -0.100586 -0.75 -0.200195 -0.75 -0.200195c0.299805 0.0996094 0.699219 0.0996094 0.699219 0.0996094zM759.45 844.8
c-69.2002 60.9004 -159.95 98.0498 -259.45 98.0498c-31.9502 0 -62.9004 -3.89941 -92.5996 -11.0498c6 -8 79.75 -105.95 146.899 -229.2c148.101 55.4502 204.05 140.601 205.15 142.2zM500 90c-254 0 -459.95 205.95 -459.95 459.95
c-0.0498047 254.1 205.9 460.05 459.95 460.05c254.1 0 460 -205.95 460 -460.05c0 -254 -205.9 -459.95 -460 -459.95zM566.8 485.7c-230.55 -80.3506 -306.7 -241.9 -308.25 -245.2c66.7002 -52.0498 150.3 -83.2998 241.4 -83.2998
c54.3994 0 106.25 11.0498 153.35 31.0498c-5.7998 34.4502 -28.6494 154.8 -83.9502 298.35c-0.799805 -0.299805 -1.64941 -0.599609 -2.5498 -0.899414zM584.5 644c9.2002 -18.6504 17.9004 -37.7002 26.1504 -56.9502c2.94922 -6.75 5.69922 -13.5996 8.5 -20.2998
c135.649 17.0996 269.25 -11.9004 273.649 -12.7998c-0.950195 93.1494 -34.2998 178.6 -89.3496 245.6c-0.900391 -1.14941 -63.9502 -92.1494 -218.95 -155.55zM643.05 504.75c51.5498 -141.8 72.4502 -257.1 76.4502 -280.55c88.2002 59.5498 150.9 154 168.35 263.5
c-7.7998 2.5 -117.8 37.3496 -244.8 17.0498z" />
    <glyph glyph-name="uniF189" unicode="&#xf189;" 
d="M876.9 918.05l-326.9 -418.05v-300h100c100 0 100 -100 100 -100h-500s0 100 100 100h100v300l-326.9 418.05c-19.6992 27.25 -23.0996 81.9502 -23.0996 81.9502h800s-3.40039 -54.7002 -23.0996 -81.9502zM470 750c0 -44.1504 35.7998 -80 80 -80s80 35.8496 80 80
c0 44.25 -35.7998 80 -80 80s-80 -35.75 -80 -80z" />
    <glyph glyph-name="uniF18A" unicode="&#xf18a;" 
d="M952.95 505.1c14.4502 -36.0498 18.7002 -75.3496 12.25 -113.6l-29.5 -176.95c-6.2002 -37.25 -38.4004 -64.5498 -76.1504 -64.5498h-719.149c-37.75 0 -69.9502 27.2998 -76.1504 64.5498l-29.5 176.95c-6.34961 38.25 -2.09961 77.5498 12.2998 113.6l158.55 396.351
c11.7002 29.3496 40.1006 48.5498 71.7002 48.5498h445.4c31.5996 0 60 -19.2002 71.7002 -48.5498zM847.95 287.75l18.2998 109.65c4.59961 27.5498 -16.6504 52.5996 -44.5498 52.5996h-643.351c-27.9492 0 -49.1992 -25.0498 -44.5498 -52.5996l18.25 -109.65
c3.60059 -21.7998 22.4502 -37.75 44.5498 -37.75h606.801c22.0996 0 40.9492 15.9502 44.5498 37.75z" />
    <glyph glyph-name="uniF18B" unicode="&#xf18b;" 
d="M510.15 1021.95c44.1494 -355.351 269.85 -428.601 269.85 -675.601c0 -152.6 -128.2 -276.35 -280 -276.35c-151.85 0 -280.05 123.7 -280.05 276.35c0 247 225.75 320.25 269.899 675.601c1.30078 10.75 18.9502 10.75 20.3008 0zM467.5 629.1
c1.25 4.65039 0.25 9.75 -2.7002 13.75c-6.2998 8.5 -20.1494 8.90039 -25.2998 0.300781c-11.25 -18.75 -25.0996 -37.6006 -39.8496 -57.5c-46.9004 -63.5508 -100 -135.65 -100 -246c0 -32.1504 25.8496 -58.3008 57.7998 -58.3008
c27.8994 0 57.7998 17.9502 57.7998 68.5508c0 93.3496 22.75 174.1 42.7998 245.3c3.2998 11.7002 6.5 22.9502 9.4502 33.8994z" />
    <glyph glyph-name="uniF18C" unicode="&#xf18c;" 
d="M305.45 1004.9l194.55 -157.051l-284.45 -184.649l-195.55 163.95zM672.6 250.4c4.25 0 8.5 1.14941 12.2002 3.59961l117.3 76.6504v-45.2002l-302.1 -190.351l-302.1 190.301v45.1992l117.3 -76.6494c3.7002 -2.4502 7.9502 -3.60059 12.2002 -3.60059
c5.0498 0 10.1494 1.7002 14.25 5.10059l158.35 131.45l158.35 -131.4c4.10059 -3.4502 9.15039 -5.09961 14.25 -5.09961zM980 827.15l-195.6 -163.95l-284.4 184.649l194.5 157.051zM500 485.45l284.4 177.75l174.05 -139.75l-282.05 -184.4zM323.6 339.05l-282.05 184.4
l174 139.75l284.45 -177.75z" />
    <glyph glyph-name="uniF18D" unicode="&#xf18d;" 
d="M878.05 928.05c72.2002 -72.2002 61.3506 -126.35 61.4004 -126.35l-302.601 -302.601l-338.699 -338.55l-238.15 -50.5l50.5 238.101l338.7 338.649l302.6 302.601s54.1504 10.7998 126.25 -61.3506zM284 189.15l23.5498 23.3994s-0.950195 44.25 -50.7998 94.0498
c-49.9004 49.9004 -94.0498 50.8008 -94.0498 50.8008l-23.5 -23.4502l-17.5 -81.1504c14.6494 -7.89941 29.2998 -17.25 46.5996 -34.5498c17.25 -17.2998 26.7002 -31.9502 34.5 -46.5996z" />
    <glyph glyph-name="uniF18E" unicode="&#xf18e;" 
d="M730.4 441.4c0 -42 11.9492 -58.75 43.1992 -58.75c69.6504 0 114 88.75 114 236.35c0 225.6 -164.399 333.6 -369.649 333.6c-211.15 0 -403.2 -141.6 -403.2 -409.199c0 -255.601 168 -394.801 426 -394.801c87.5996 0 146.4 9.60059 236.35 39.6006l19.3008 -80.3506
c-88.8008 -28.8496 -183.7 -37.1992 -256.851 -37.1992c-338.399 0 -519.649 186 -519.649 472.8c0 289.2 210.05 486 499.25 486c301.199 0 460.75 -180 460.75 -400.8c0 -187.2 -58.75 -330 -243.551 -330c-84.0498 0 -139.199 33.5996 -146.399 108.05
c-21.6006 -82.7998 -79.2002 -108.05 -157.25 -108.05c-104.4 0 -192 80.4492 -192 242.399c0 163.2 76.8496 264 214.85 264c73.2002 0 118.8 -28.7998 139.101 -74.3994l34.8496 63.5996h100.8v-352.85h0.100586zM582.85 599.8c0 65.9502 -49.25 93.6006 -90.0498 93.6006
c-44.3994 0 -93.5498 -35.9502 -93.5498 -141.601c0 -84 37.2002 -130.8 93.5498 -130.8c39.6006 0 90.0498 25.2002 90.0498 94.7998v84z" />
    <glyph glyph-name="uniF18F" unicode="&#xf18f;" 
d="M375 562.5c-41.4004 0 -75 39.2002 -75 87.5s33.5498 87.5 75 87.5s75 -39.1504 75 -87.5s-33.5498 -87.5 -75 -87.5zM500 1030c265.05 0 480 -214.9 480 -479.95c0 -265.149 -214.95 -480.05 -480 -480.05c-265.1 0 -480 214.9 -480 480s214.9 480 480 480zM500 170.05
c209.85 0 380 170.101 380 379.95c0 209.9 -170.1 380.05 -380 380.05s-380 -170.149 -380 -380c0 -209.899 170.15 -380 380 -380zM717.05 483.2c18.2998 -9.40039 25.7002 -31.5498 16.5 -49.9004c-2.4502 -4.9502 -62.25 -120.75 -233.5 -120.75
c-171.2 0 -231.1 115.75 -233.6 120.7c-9.2998 18.5498 -1.75 41.0996 16.75 50.3496c18.5996 9.25 40.7998 1.80078 50.2002 -16.4492c2.09961 -3.9502 44.0996 -79.6006 166.649 -79.6006c123.15 0 164.9 76.4004 166.601 79.6504
c9.64941 18.1494 32.25 25.3496 50.3994 16zM562.5 612.5c-20.7002 0 -37.5 16.75 -37.5 37.5c0 20.7002 16.7998 37.5 37.5 37.5h125c20.7002 0 37.5 -16.7998 37.5 -37.5s-16.7998 -37.5 -37.5 -37.5h-125z" />
    <glyph glyph-name="uniF190" unicode="&#xf190;" 
d="M500 1030c265.05 0 480 -214.9 480 -479.95c0 -265.149 -214.95 -480.05 -480 -480.05c-265.1 0 -480 214.9 -480 480s214.9 480 480 480zM500 170.05c209.85 0 380.05 170.05 380.05 379.95s-170.2 380 -380.05 380c-209.9 0 -380 -170.05 -380 -379.95
c0 -209.899 170.15 -380 380 -380zM375.05 562.5c-41.4502 0 -75.0498 39.1504 -75.0498 87.5s33.5996 87.5 75 87.5s75 -39.1504 75 -87.5s-33.5498 -87.5 -74.9502 -87.5zM625 562.5c-41.4004 0 -75 39.2002 -75 87.5s33.5996 87.5 75 87.5s75 -39.1504 75 -87.5
s-33.5498 -87.5 -75 -87.5zM717.05 483.2c18.2998 -9.40039 25.7002 -31.5498 16.5 -49.9004c-2.4502 -4.9502 -62.25 -120.75 -233.5 -120.75c-171.2 0 -231.1 115.75 -233.6 120.7c-9.25 18.5498 -1.75 41.0498 16.75 50.3496
c18.5996 9.25 40.7998 1.80078 50.2002 -16.4492c2.09961 -3.9502 44.0996 -79.6006 166.649 -79.6006c123.15 0 164.9 76.3506 166.601 79.6504c9.64941 18.1494 32.25 25.2998 50.3994 16z" />
    <glyph glyph-name="uniF191" unicode="&#xf191;" 
d="M500 1030c265.05 0 480 -214.9 480 -479.95c0 -265.149 -214.95 -480.05 -480 -480.05c-265.1 0 -480 214.9 -480 480s214.9 480 480 480zM500 170.05c209.85 0 380 170.101 380 380c0 209.9 -170.15 380 -380 380c-209.9 0 -380 -170.149 -380 -380
c0 -209.899 170.15 -380 380 -380zM625 737.45c41.4502 0 75 -39.1006 75 -87.4502s-33.5498 -87.5 -75 -87.5c-41.4004 0 -75 39.2002 -75 87.5s33.5996 87.4502 75 87.4502zM375.05 562.5c-41.4502 0 -75.0498 39.1504 -75.0498 87.5s33.5996 87.5 75 87.5
s75 -39.1504 75 -87.5s-33.5498 -87.5 -74.9502 -87.5zM650 437.5c20.75 0 37.5 -16.75 37.5 -37.5c0 -20.7002 -16.7998 -37.5 -37.5 -37.5h-300c-20.7002 0 -37.5 16.7998 -37.5 37.5s16.7998 37.5 37.5 37.5h300z" />
    <glyph glyph-name="uniF192" unicode="&#xf192;" 
d="M500.05 1030c265 0 479.95 -214.9 480 -480c0 -265.15 -214.95 -480.05 -480 -480.05c-265.149 0 -480.05 214.899 -480.05 480.05c0 265.1 214.9 480 480.05 480zM500 170.05c209.85 0 380 170.101 380 380c0 209.9 -170.15 380 -380 380
c-209.9 0 -380 -170.149 -380 -380c0 -209.899 170.15 -380 380 -380zM625.05 562.5c-41.4502 0 -75 39.1504 -75 87.5s33.6006 87.5 75 87.5c41.4004 0 75 -39.1504 75 -87.5s-33.5996 -87.5 -75 -87.5zM375.05 562.5c-41.4502 0 -75 39.1504 -75 87.5
s33.6006 87.5 75 87.5c41.4004 0 75 -39.1504 75 -87.5s-33.5996 -87.5 -75 -87.5zM500.1 487.5c171.2 0 231.051 -115.8 233.5 -120.75c9.25 -18.5 1.75 -41.0996 -16.7998 -50.2998c-18.5498 -9.35059 -41.0996 -1.7002 -50.2998 16.7998
c-1.5 2.90039 -43.25 79.25 -166.4 79.25c-125.399 0 -166.1 -78.4502 -166.5 -79.2998c-6.59961 -13.1504 -19.8496 -20.7002 -33.5996 -20.7002c-5.65039 0 -11.3496 1.2998 -16.75 3.9502c-18.5 9.2998 -26.0498 31.7998 -16.75 50.3496
c2.5 4.9502 62.4004 120.7 233.6 120.7z" />
    <glyph glyph-name="uniF193" unicode="&#xf193;" 
d="M900 900c55 0 100 -45 100 -100v-500c0 -55 -45 -100 -100 -100h-477.7c-22 0 -53.5498 11.9004 -70.0996 26.3496l-339.8 297.351c-16.5508 14.4502 -16.5508 38.2002 0 52.6494l339.8 297.4c16.5498 14.4502 48.0996 26.25 70.0996 26.25h477.7zM759.55 350
l72.2002 72.25l-127.85 127.75l127.8 127.85l-72.2002 72.1504l-127.75 -127.75l-127.85 127.75l-72.1504 -72.1504l127.8 -127.85l-127.8 -127.85l72.1504 -72.1504l127.8 127.85z" />
    <glyph glyph-name="uniF194" unicode="&#xf194;" 
d="M849.9 841c43.5996 -33.5498 51.7998 -96.5996 18.25 -140.15l-420.051 -544.85c-33.5996 -43.5498 -96.75 -51.7998 -140.35 -18.25l-157.65 121.25c-43.5996 33.5498 -51.7998 96.5996 -18.25 140.15l420 544.85c33.6006 43.5498 96.75 51.7998 140.351 18.25z
M427.4 226.65c6.44922 8.39941 9.25 18.8496 7.94922 29.5c-1.39941 10.6494 -6.75 20.0498 -15.1494 26.5l-157.7 121.25c-8.7998 6.75 -18.0498 8.19922 -24.25 8.19922c-12.75 0 -24.4004 -5.69922 -32 -15.5498l-26.8496 -34.0498
c-6.4502 -8.34961 -9.25 -18.7998 -7.85059 -29.4502c1.40039 -10.6494 6.75 -20.0498 15.1504 -26.5l157.649 -121.25c8.80078 -6.75 18.0508 -8.2002 24.25 -8.2002c12.7002 0 24.3506 5.65039 31.9502 15.5z" />
    <glyph glyph-name="uniF195" unicode="&#xf195;" 
d="M866.95 834.65c0 -57.5 85.1494 -734.65 -147.2 -734.65c-164.9 0 -183 16.5996 -193.45 25.2002c-10.4502 8.5 -24.7002 47.6494 -19.4502 130.649c5.7002 90.8008 140.351 74.9004 140.351 74.9004l-3.25 -70.2998s-13 -0.950195 -38.9502 -0.950195
s-41.75 -64.25 17.0498 -68.4502l85.7998 3.40039c37.9004 5.2998 32.7002 79.7998 27.0508 137.399c-4.35059 43.6504 -86.25 40.8008 -147.551 56.1504c-61.3994 15.2002 -73.25 80.1504 -84.0996 80.1504s2.15039 -115.051 -36.7998 -115.051
s-223.95 20.9004 -254.2 50.7002c-52.0996 51.3506 -90.0498 273.851 -90.0498 300c0 26.1006 25.0996 31.3506 57.3496 29.2998h115.351c55.9492 0 78.2998 21.5508 78.2998 72.4502c0 28.2998 -0.700195 73.4502 -0.700195 112.5c0 39.1006 7.65039 80.5 40.1504 80.8506
c32.5 0.299805 77.6992 6.14941 118.8 -13c41.0996 -19.25 45.4502 -74.6006 45.4502 -74.6006l203.449 -12.7998s86.6006 -6.34961 86.6006 -63.8496zM772 534c9.2002 9.65039 -21.0498 109.85 -80.4502 109.85c-59.3994 0 -74.7002 -88.5498 -66.7002 -99.5
c8 -11.0498 42 5.65039 73.5508 5.65039c31.5 0 64.5 -25.7998 73.5996 -16zM290.2 841.7c0 -11.3506 -3.65039 -22.75 -27.4502 -22.7998h-144.9l175.25 172s-2.89941 -137.75 -2.89941 -149.2z" />
    <glyph glyph-name="uniF196" unicode="&#xf196;" 
d="M750 300v55.0498l100 82.25v-187.3c0 -27.6504 -22.3496 -50 -50 -50h-750c-27.6504 0 -50 22.3496 -50 50v550c0 27.5498 22.3496 50 50 50h288.25c-74.0498 -55.2002 -108.5 -100 -108.5 -100h-129.75v-450h650zM668.05 647.5
c-218.75 0 -288.95 -35.0996 -403.05 -222.5c0 0 0 398.4 403.05 398.4v156.55l331.95 -249.95l-331.95 -260.05v177.55z" />
    <glyph glyph-name="uniF197" unicode="&#xf197;" 
d="M926.074 976.12c19.5342 -19.5312 19.5342 -51.1689 -0.00292969 -70.7002l-781.439 -781.54c-19.5312 -19.5342 -51.1689 -19.5371 -70.7002 -0.00292969c-19.5371 19.4795 -19.5371 51.1689 -0.00585938 70.7002l781.448 781.549
c19.5312 19.5342 51.2236 19.5312 70.7002 -0.00585938zM155.42 375.134c-102.552 70.3252 -155.42 153.693 -155.42 174.866c0 38.3789 171.973 279.98 500 279.98c35.9619 0 69.7021 -3.33203 101.88 -8.55078l-60.1074 -60.083
c-13.5498 2.50879 -27.4658 4.08301 -41.7725 4.08301c-122.754 0 -222.266 -96.4844 -222.266 -215.43c0 -16.1738 2.17285 -31.7871 5.65137 -46.9424zM844.751 724.768c102.441 -70.2754 155.249 -153.552 155.249 -174.768c0 -38.2812 -171.973 -279.98 -500 -279.98
c-35.8643 0 -69.5312 3.32617 -101.648 8.52051l60.2061 60.1807c13.4512 -2.46582 27.2461 -4.05273 41.4424 -4.05273c122.754 0 222.217 96.3867 222.217 215.332c0 16.0762 -2.12402 31.6289 -5.56641 46.7041z" />
    <glyph glyph-name="uniF198" unicode="&#xf198;" 
d="M500 830c328 0 500 -241.6 500 -280c0 -38.2998 -172 -280 -500 -280c-328.05 0 -500 241.7 -500 280c0 38.4004 171.95 280 500 280zM500 334.65c122.75 0 222.2 96.3994 222.2 215.35s-99.4502 215.45 -222.2 215.45s-222.25 -96.5 -222.25 -215.45
s99.5 -215.35 222.25 -215.35zM500 550c17.2998 -18.9502 111.15 27.3496 111.15 0c0 -59.4502 -49.8008 -107.7 -111.15 -107.7c-61.4004 0 -111.15 48.25 -111.15 107.7s49.75 107.7 111.15 107.7c33.1504 0 -20.3496 -85.3506 0 -107.7z" />
    <glyph glyph-name="uniF199" unicode="&#xf199;" 
d="M500 1030c265.1 0 480 -214.9 480 -480s-214.9 -480 -480 -480s-480 214.9 -480 480s214.9 480 480 480zM613.7 698.3v79.0498h-72.1504c-59.7002 0 -103.2 -50.9492 -103.2 -113.649v-43.7002h-77.25v-74.2998h77.25v-223.05h85.1504v223.05h76.5996l13.6504 74.2998
h-90.25v52.0996c0 14.9502 9.5 26.2002 18.0498 26.2002h72.1504z" />
    <glyph glyph-name="uniF19A" unicode="&#xf19a;" 
d="M850 1000c55 0 100 -45 100 -100v-700c0 -55.0498 -45 -100 -100 -100h-200v350h100l28.4004 123.7h-128.4v84.5c0 34.5996 18.9004 71.8994 68.5996 71.8994h59.8506v130.25l-90.1504 0.100586c-127.7 0 -188.3 -76 -188.3 -184.2v-102.5h-100v-123.75h100v-350h-350
c-55 0 -100 44.9502 -100 100v700c0 55 45 100 100 100h700z" />
    <glyph glyph-name="uniF19B" unicode="&#xf19b;" 
d="M212.7 71.6504c-6.75 -21.4502 -44.1504 -13.3008 -42.9502 24.6494c2.5498 47.5 19.25 140.9 49.7998 222.05c-81.0498 123.65 -80.3994 216.75 -52.6494 309.7c20.2998 -60.6494 88.3496 -194.35 108.6 -184.7c20.2002 9.60059 -42.8496 280.051 14.7998 397.9
c30.9502 63.3496 129.65 137.45 183.5 161.3c-51.0996 -95.75 -45.1494 -198.8 -15.9502 -200.649c29.3008 -1.80078 127.95 232.25 190.851 237.699c62.8994 5.5 177 -52.75 195.7 -91.7998c15.5996 -32.2998 -2.35059 -122.85 -40.6504 -160.1
c-74.2998 -72.3506 -213.65 -56.75 -260.6 -83.4502c-20.3506 -11.5498 30.0996 -88.1504 187.85 -53.3496c-125.15 -177.7 -316.25 -132.25 -320.8 -158.65c-4.5 -26.4502 79.5996 -87.4004 149.35 -66.0498c-85.9502 -153.5 -141.95 -115 -277.3 -136.45
c-31.0498 -99.9004 -54.2002 -169 -69.5498 -218.1z" />
    </font>
</defs>
</svg>
